<mxfile host="Electron" modified="2024-02-22T01:31:39.416Z" agent="Mozilla/5.0 (Macintosh; Intel Mac OS X 10_15_7) AppleWebKit/537.36 (KHTML, like Gecko) draw.io/23.1.5 Chrome/120.0.6099.109 Electron/28.1.0 Safari/537.36" etag="QZsa0ooc4S2u7QWW4ak-" version="23.1.5" type="device">
  <diagram name="페이지-1" id="qXzafi3doI2zqVztMHFi">
    <mxGraphModel dx="2049" dy="1220" grid="1" gridSize="10" guides="1" tooltips="1" connect="1" arrows="1" fold="1" page="1" pageScale="1" pageWidth="1600" pageHeight="900" math="0" shadow="0">
      <root>
        <mxCell id="0" />
        <mxCell id="1" parent="0" />
        <mxCell id="TR_LXy8-aTHuwuq-qnMh-4" value="" style="shape=image;verticalLabelPosition=bottom;labelBackgroundColor=default;verticalAlign=top;aspect=fixed;imageAspect=0;image=data:image/png,iVBORw0KGgoAAAANSUhEUgAAAnYAAAEACAYAAAA+xzu4AAAAAXNSR0IArs4c6QAAIABJREFUeF7t3Ql4FPX9x/Hv5iQXJIQjCCqoCCoVD7RF0aKItiKeoOCFUhQVFJFDLaByihUUbwWKolUoVAVBLYiKSlFRFBX/oKB4IEfCTRJykfyf78Td7G422WWTmUxm3vM8fSrJzvF7/b6789nf/GbiWbJkSVnTpk2lVatWkpqaKmVlZcKCAAIIIIAAAgggYH8Bj8cjubm5snnzZsnJyRHPF198Uda+fXtJTEyUmJgY+7eAI0QAAQQQQAABBBDwCZSWlkphYaGsX79ePNnZ2WWZmZmEOgoEAQQQQAABBBCopwIa7nbu3CmevLy8suTk5HraDA4bAQQQQAABBBBAQAXy8/MJdpQCAggggAACCCDgBAGCnRN6kTYggAACCCCAAAKM2FEDCCCAAAIIIICAcwQYsXNOX9ISBBBAAAEEEHC5AMHO5QVA8xFAAAEEEEDAOQIEO+f0JS1BAAEEEEAAAZcLEOxcXgA0HwEEEEAAAQScI0Cwc05f0hIEEEAAAQQQcLkAwc7lBUDzEUAAAQQQQMA5AgQ75/QlLUEAAQQQQAABlwsQ7FxeADQfAQQQQAABBJwjQLBzTl/SEgQQQAABBBBwuQDBzuUFQPMRQAABBBBAwDkCBDvn9CUtQQABBBBAAAGXCxDsXF4ANB8BBBBAAAEEnCNAsHNOX9ISBBBAAAEEEHC5AMHO5QVA8xFAAAEEEEDAOQIEO+f0JS1BAAEEEEAAAZcLEOxcXgA0HwEEEEAAAQScI0Cwc05f0hIEEEAAAQQQcLkAwc7lBUDzEUAAAQQQQMA5AgQ75/QlLUEAAQQQQAABlwsQ7FxeADQfAQQQQAABBJwjQLBzTl/SEgQQQAABBBBwuQDBzuUFQPMRQAABBBBAwDkCBDvn9CUtQQABBBBAAAGXCxDsXF4ANB8BBBBAAAEEnCNAsHNOX9ISBBBAAAEEEHC5AMHO5QVA8xFAAAEEEEDAOQIEO+f0JS1BAAEEEEAAAZcLEOxcXgA0HwEEEEAAAQScI0Cwc05f0hIEEEAAAQQQcLkAwc7lBUDzEUAAAQQQQMA5AgQ75/QlLUEAAQQQQAABlwsQ7FxeADQfAQQQQAABBJwjQLBzTl/SEgQQQAABBBBwuQDBzuUFQPMRQAABBBBAwDkC9T7Yff7557Jy5UpJSEiQW265xfKemTVrluzatUtOPfVUOeecc2q0/82bN8vcuXONbfTr10+aNm1a7fZ0v1u3bpVGjRpJixYtJDY2tkb7Z2UEEEAAAQQQqN8Ctg9227Ztk9WrV8uOHTukY8eOcsIJJ0h8fLxPferUqTJ8+HDj32VlZb6fr1q1SsaMGRNx7/Tt21duuOGGSq/Py8uTZ555RgoKCuT22283QpT/cuSRR8ovv/wi9913n4wdO7bK/R04cEBKSkpC/j4uLk6SkpLk448/ljPOOMN4zbp166R9+/YBr9f2LVu2TKZMmSJLly6ttK1OnTrJ/fffLz169BCPxxPwe3X8z3/+E7HHrbfeGhAUc3JyRLcRyZKRkSGtWrWK5KW8BgEEEEAAAQRqUcC2wa60tNQISuPGjQto7hFHHCHvv/++HHXUUcbPqwp2b7/9tlx44YURU+m+NJwFL19//bURKHXR0UEdmYsm2Olo3vLly0MeT7du3YzAFi7YTZs2TYYOHerbhlposNy+fbt8//33vp9rQH3++ecD9vXJJ59I586dI/YoKioKCNDTp0+XgQMHRrR+7969Zd68eRG9lhchgAACCCCAQO0J2DbYPfTQQ3LPPfcYLdVRumOPPVZef/1149/Jycny22+/SXp6epXBLjc3V3799Vef1KOPPiozZszw/Vu399prr0lMTIzxs8aNG0vz5s3rJNhdfPHFsnDhwmqDnQYtHQnTDtOROR1901DnXfbs2SN33XWXL9D98MMPvvCrr9FLtuFG7D766COZP3++scnqgl24gHjuuefKhAkTaq9K2RICCCCAAAIIRCRg22DnvcR50003ybPPPmsEMP/Rs8WLFxuXHKsasfO2XuetPffccyGDxvXXXy/33ntvpUue/nL+o2gffPCBnH322QGwkV6K9Y7Y6TxAvbQbaqluxG737t1G+NRFR+R0bl/w5dann35aBg0aZLxG5x2GC2DBxzBnzhy5+uqrwwY7/0veEVUZL0IAAQQQQAABSwRsGex0LpfeDKDLkiVL5Pzzz/dhtGvXzrjsOHr0aBk/fnzIYHfw4EEZMmSI/O9//5M1a9b41r3sssvkhRdekMmTJ8uDDz7o+7mO3v3pT3+Sf/zjH5VG7RYsWCC6ni46mtWrVy955JFHROfe6eK9fBtujl1Ng53u6+abb/aNOp500kmiI31NmjSRvXv3ymeffSZvvPGGcUzaHp2j5x2N1J/pPEUd6Yt0qW7EjmAXqSKvQwABBBBAwFoBWwY7DWYNGzY0LjvqJb1Ro0YZKtnZ2b7gpaNLffr0qXLEbvDgwfLUU08Z62mgGTFihFxxxRW+GwJ0np7OWfOGIb3c+80331QaBZs4caIRInV54IEHjJsT9JKtHov/UtvBTsOZhkENkuedd56xKw2TTz75pO8SdahS0TZOmjTJCHf+C8HO2jcWe0MAAQQQQKAuBGwZ7BTCP5jp5cvWrVuLXmrUO1B10UusLVu2DBnsdD7ZV199Jd9++60xP+/www+v0lZHu7777jvjrlS9MaJt27a+1+rIlO7Xu89mzZoZc9X0xgC9y1WX/v37G/9f28HOexDaZr1D1X/Rx5xs2LBBfv75Z2OuoR6XXhLWY63qblT/YBfqjttwxaeB1nsjy9q1a6t9eWJiohxzzDHhNsnvEUAAAQQQQKCWBWwb7HR0Sud7eUfU/Nv93nvv+Z4ZF2qOnc4z00B0qIuGQP/QoqN6eiOA/+Kd2+f9mVlz7HSU8OSTTzaCqe7z1VdfPdTmGCF19uzZxnq6jZ49exr/fdttt4W9LKvt9r8547TTTjPuCo5kCXaMZB1egwACCCCAAAI1F7BtsNOm6TwvfUSIPqpjy5Ytxjy4rl27GiNT3iVUsNPLlW+99dYh62iQ8d7YoCN5ejlTL7meddZZxqiYhiu9I/fHH3/0XRI2K9j5j6rdcccd8sQTTxxye/RxKDqqp4uOMl511VURb0PvGPbOLfQGQ710Hcmio3V6wwsLAggggAACCFgrYOtgpxTr1683bg7IzMwMeXkv3F2xug29fKoPLNZLmHp3qT7gWAOZPgxYbz4IXjS4XXvttcbjR3TRGxP0USPey4sa8vRGCr1DNtJg538Hqz7aRB94rI8o0Qcvb9y40QixOtIY6gHF+pp9+/ZVOk6df+h9Xp0+3iR40b9E4R11U4PgZ9t55y7qejqX0H+55JJLjNFCFgQQQAABBBCoPwK2D3Z648C7775rPBw31CiQN9jpSJr3TlUv/86dO0Ufl+J9/l2obtHROL1T1vvAYw1cGoa8N0foX7V4+OGHjVX9H9Kr6+njT7xz8MLNsQt+NEmoY9HnyOl2dQk1D07n8+m8P72hQh/18thjj8mdd95pvD6aO1W9odR7U0j9KVuOFAEEEEAAAQRCCdT7YKcjXfo/HZ3SGyCCR528c/Q0GOojQlJSUozRMr1hQkOhLnrJ8qeffvLdEev9qxX6WBQNdv5/g/Wdd96RAQMGGI9S0RsVIh2x079soXfd6p8P08eQNGjQQNLS0owRQ+9fkNDfVRfsvOFQL4nq41x0/pz3cSveS66hOlkf+aJtDl68z7nTkbmZM2dW+r3+rVq9A7i6YFzd2+rMM88MeEgyb0EEEEAAAQQQMFeg3ge7qnj0T5J5A5neLOB99In/6/V5dMOGDTN+pM/O8//LE3pp8+ijjw65eX0ci3fbkQa7SLox3J8UCw52kWxTX+M9xkhf732djgbqX7PQ4BnNEjxPL5ptsA4CCCCAAAIIRC5g+2Dnfwnzr3/9a7Ut0wcW+/8t18svv9w32qR/rUFH7PT5eHrJVufuecOe3iSh/47kcmnwAdRFsNNj8H9ocygUHW3Uu2p10Qcb6+NhDnW56KKLpG/fvqJ/3i2aRecpdujQIZpVWQcBBBBAAAEEohCwfbDTS6d6kJEseiesf/jTGyX0Eqz375+G2ka3bt2MOXZVPf8t3H7rKtiFOy7/R8KEey2/RwABBBBAAAFnCNg+2Okdo7m5uRFp640M6enplV6bk5Nj/EktvbtU70TVuW16l23Hjh2rfXhxJDvVuWl6t60+503/UkRNll9//VX0L2rocuONN4rOcfNf9G/l6iXmSJY2bdpIo0aNInkpr0EAAQQQQAABhwjYPtg5xJlmIIAAAggggAACpgsQ7EwnZgcIIIAAAggggIA1AgQ7a5zZCwIIIIAAAgggYLoAwc50YnaAAAIIIIAAAghYI0Cws8aZvSCAAAIIIIAAAqYLEOxMJ2YHCCCAAAIIIICANQIEO2uc2QsCCCCAAAIIIGC6AMHOdGJ2gAACCCCAAAIIWCNAsLPGmb0ggAACCCCAAAKmCxDsTCdmBwgggAACCCCAgDUCBDtrnNkLAggggAACCCBgugDBznRidoAAAggggAACCFgjQLCzxpm9IIAAAggggAACpgsQ7EwnZgcIIIAAAggggIA1AgQ7a5zZCwIIIIAAAgggYLoAwc50YnaAAAIIIIAAAghYI0Cws8aZvSCAAAIIIIAAAqYLEOxMJ2YHCCCAAAIIIICANQIEO2uc2QsCCCCAAAIIIGC6AMHOdGJ2gAACCCCAAAIIWCNAsLPGmb0ggAACCCCAAAKmCxDsTCdmBwgggAACCCCAgDUCBDtrnNkLAggggAACCCBgugDBznRidoAAAggggAACCFgjQLCzxpm9IIAAAggggAACpgsQ7EwnZgcIIIAAAggggIA1AgQ7a5zZCwIIIIAAAgggYLoAwc50YnaAAAIIIIAAAghYI0Cws8aZvSCAAAIIIIAAAqYLEOxMJ2YHCCCAAAIIIICANQIEO2uc2QsCCCCAAAIIIGC6AMHOdGJ2gAACCCCAAAIIWCNgy2CXl5dnTevZCwJ1KJCSkiLUeh12ALu2RIA6t4SZndSxgNa5XRaCnV16guNwnQAnPNd1uSsbTJ27sttd12iCXZguZxTDde8JVzaYE54ru911jabOXdflrmwwwY5g58rCp9GBApzwqAg3CFDnbuhl2kiwI9jxLkBAOOFRBG4QoM7d0Mu0kWBHsONdgADBjhpwhQDBzhXd7PpGEuwIdq5/EwAgBDuKwBUCBDtXdLPrG0mwI9i5/k0AAMGOGnCHAMHOHf3s9lYS7Ah2bn8P0H4h2FEE7hAg2Lmjn93eSoIdwc7t7wHaT7CjBlwiQLBzSUe7vJkEO4Kdy98CNF8FOOFRB24QoM7d0Mu0kWBHsONdgADBjhpwhQDBzhXd7PpGEuwIdq5/EwDAiB014A4Bgp07+tntrSTYEezqzXugsLBQioqKJC0tTX744QfZvXu3dOrUqd4cv50PlBOenXun4thKS0tl165d0qRJE6P+P/vsMzn//PPrx8Hb4Cipcxt0QohD8P9sp65r3kcEO4JdzavIbwvffvutLFq0SDZt2iTHHXecXHXVVdKiRQvfK+bOnSt79uyRW265pcr9Pvnkk7Jz586A3w8aNEgWLFggX375pTz11FPy2muvyTfffCP3339/rR6/WzfGCa9yz+fk5Mi///1vWbdunVHDF110kZx00kmyf/9+eeSRRwJWUL/hw4cH/C4mJkaysrKkc+fO0qFDB1/NBu/p+OOPl969ewf8+K233jJCm//Ss2dPOXjwoLGfN998U7Zu3SoDBgyQDz74wK1le8jtps6rJ/PW9t133y0NGjQwXqyf2VrLV1555SF7B69QVV1/8cUXvs/2DRs2UNc1lCbYEexqWEIVq69YsUJGjRolAwcOlBNOOMEIXlu2bJGRI0caLzpw4ID06tXL+O8XXnhBmjZtGnLfffr0MU6i7dq18/1eT4wFBQWSl5cnrVq1ItjVWq+Vb4gTXiDob7/9JjfffLN07dpVzjnnHGOU7NVXX5XHH39c9u3bZ9Tx+PHjJSkpyVgxNjZWTjnlFNEwqL+bPHmyeDwe2bhxo8yYMUMeffRRY6RZv9To+uPGjZP77rtPGjZsKOnp6dK2bduAA9D96MjFhRde6Pv5kUceabz2p59+kmOPPVY4AR76m4A6r97MW7/6xSE1NdX4AjFr1iyjhhs3bnzo4EFrVFXX8fHxvs926rrGzMbnuV2W/Px88eTl5ZUlJyfb5ZiMYmMJL6BD6VdffbX069dPLr74Yt8KZWVlxglOFw1+S5culUaNGskxxxwjl1xySZXBTkclgi+z6ht+x44dxghI8IidjmS8++67vpHCLl26GN8yWSIT4IQX6KShTZfRo0f76tf7iuCTn/+aoX43duxYY+ROv/DoooHt0ksvlddff73Kk6WeADUI3njjjQEHpgHzo48+Mt47oU6AOvKxevVqOeyww+TPf/6zcXJmqRCgziMPdjrd5Y477pB//vOfxue1dwmuMQ1lGgB1SoC33r7//nvjqot+VvsvVdW1/2c7dV3zdyzBLowhwS6yItMPgf79+xtv8KpOJnqyPP30040T1pw5c+SJJ544pGDnH+aCg52ePHNzc40RFv1d9+7dRUf+WCIT4IRX4aTz2HSUburUqSHncHrD28svv+z7Zqw1rye44GCnXzhuuOEGueyyy+Tyyy+vcbDzP+kFnwAXL14s//rXv+S6666TVatWiX5Tfuihh/iC4/cWoM4jC3Y6Qjd06FBj1Nr/C3hVNXb77beLThX4y1/+YuxAR6P/+Mc/So8ePSIKdv6f59R1ZJ/Z1b2KYEewq3kVicjHH38sEyZMMIJdqEUDsl5W0stZevlK/1vnL+lIRvCigUznemgA1EVHN/RnVQU7/XaoH0L6+8TERNF/33vvvca+WCIT4IRX4eQdUXvllVekZcuWlQC94c3/C8ykSZOkY8eOvmCnUwl05EznwbVv314efPBB3+hcpCN2Wr/e+alt2rQxtlFVsCsuLpbzzjtPZs6caVzW9f573rx50rx588iKwAWvos4jC3Za2zrHrnXr1jJlyhRj1Lq6GtNpNwsXLjS+rOsXbA10+nmcmZlZKdiFquuqgh11Hd2bkmBHsIuucoLW0psmbrvtNlm2bJkxchG8LF++3LjRwTuKphNy9dKUXr4NFex09E9PlLropXkNeVUFu3feeccIlToPTxedi6dzm/TnCQkJtdI+p2+EE15FD3tPJnqTjrem/Ps/kkuxOmKhX3I03AWPYkca7HSfevORLjqHT++ErSrY6ZxAfS9piIyLizPWWbt2rXGiPfHEE51evhG3jzqPLNide+65cueddxo19fe//13OPPNMqa7G9MuEjtbpl6Eff/xRdGRPR4uDF70UG6quqwp21HXEpR3wQoIdwS66yglaa+/evcbcOn3jegOZ/0s01OkbXof2ddGRBB2V05soQgW7UHPsqgp2Oudj4sSJMnv27IBNMb8o8q7lhBdopV86zj77bLnmmmsqIUYS7DTM6ci01rueJP23E2mwCzXHrqpg5x0R1/eABkDvosegoZClXIA6jyzY6RMIMjIyRO9i1Tl2GthKSkqMKy1V1dgzzzxjrKOf86eddpoxHSZUsAtV11UFO+o6uncuwY5gF13lhFhL52X897//NS4ZHXXUUcbogg676/wLDX06J0nvaNVFJ4HrvKNQl7t0VC9csNOJ52vWrBHv3Dod2dBvmHo5Sj+AdOJuqMu8tdZYh22IE15gh37yySeij3zQeaE6V0jvZp0+fboR1PSmHL3zVWvb/8uDXroKDn1ff/21Uf/+0w5qO9jpaLheKhs2bJgcfvjhMnjwYCPMbd682fg3S4UAdR5ZsPOOMusc0b/97W/GaJx+LldXYxrodHRPv7DrFRnvVBr/PVZ180SoYEddR//OJdgR7KKvnqA19RLWiy++aPxPFz3p3XXXXcZJRkfmgkfnhgwZImeddZbvESjezVUV7DTM6eWlMWPGGKFO1/deatJ5dXoS1sCoi04g5+aJyLuWE15lq/fee8+4gULnDOly7bXXGnepajDzPrbHf60lS5YYJzX9nf/lV/3yoe8BvcNWl9oKdrovncunUyD0i42OmutjVD7//HPjvaeXYHUkm7vDCXaRfhKEGo3+6quvjLtj9YuMTrOprsb0eaM6Yqw1H2qpKtj5f7ZT15H2VtWvI9gR7GpeRUFb0G95+qwufeaW91Entb4TEeNEppea/OfR6ciKFnWoeX5mHINTtkmwq7onNYjp8+bseElTnw2p7zf/kUPvnfx2+nC3y/uEOq+dnghVY3o3+U033WQ8HUHn5NVkoa5rolc+5cAuC8+xs0tPcByuE+CE57oud2WDqXNzul2vmOgzSnW0WOfk2fFLkDktt+dWCXaM2NmzMjkqSwU44VnKzc7qSIA6Nwde51fryLFOQ/C/ececvbHVcAIEO4JduBrh9y4Q4ITngk6midwVSw24QoBgR7BzRaHTyOoFCHZUiBsEqHM39DJtJNgR7HgXIMBIBjXgCgGCnSu62fWNJNgR7Fz/JgCAB7dSA+4QINi5o5/d3kqCHcHO7e8B2s8T+akBlwgQ7FzS0S5vJsGOYOfytwDNVwFOeNSBGwSoczf0Mm0k2BHseBcgQLCjBlwhQLBzRTe7vpEEO4Kd698EADBiRw24Q4Bg545+dnsrCXYEO7e/B2g/l2KpAZcIEOxc0tEubybBjmDn8rcAzWeOHTXgFgGCnVt62t3tJNi5u/9pPQIIIIAAAgggYIpAfn6+ePLy8sqSk5NN2QEbRQABBBBAAAEEELBGgGBnjTN7QQABBBBAAAEETBcg2JlOzA4QQAABBBBAAAFrBAh21jizFwQQQAABBBBAwHQBgp3pxOwAAQQQQAABBBCwRoBgZ40ze0EAAQQQQAABBEwXINiZThz9DmYtzZMH5u+XvKKy6Ddi0zVTEjzyQO806X9+ik2PkMMyW8DJ9a121LjZFVQ/tk+d149+ctJREuxs3JtH3LTNkaHOS64nvl9mZNm4Bzg0MwWcXt/ecEeNm1lF9t82dW7/PnLaERLsbNyjmf222vjoaufQds5uUTsbYiv1TsAN9a2dQo3Xu9Ks1QOmzmuVk41FIECwiwCprl7ihg8ETnp1VV11v1831DfBru7rrK6PgDqv6x5w3/4Jdjbuczd8IBDsbFyAJh+aG+qbYGdyEdWDzVPn9aCTHHaIBDsbd6gbPhAIdjYuQJMPzQ31TbAzuYjqweap83rQSQ47RIKdjTs02g+Ewd2TpX/3VDllZHZA61o3jpGbu6dI28PiJCHeI5u2lcgrH+bLqp9KAl6XHO+RmJjQMMUlIoUHa+8uXYKdjQvQ5EOLtr71sL5+pJlMW7hfZn1wIOxRPvO3RtK0UYz0emR3pdcmxnqkdWaMfJd9MOx2/F/QIN4jG59uLl3uzpafdpVWuy41fki0jntxTer833dmSEFRmfR7ek9YlytPbyD39W0oHYYGfu57V2zXPFZ+yDkoJdWXa6X9fP5QU3npvTx5bEk+dR62F+zxAoKdPfoh5FFU94GQmuiR/3u8mXjEE7Bum1u3yX2Xp8qN3VPl8IHbfL/rfVoDeWZQhmTvOShfbyqSohKRti3jjZD3zyW5cvec/b7XbniimaSnxVY6phiPyJc/FMl543Yav9OT4k/Tm1cpOOrFvWFPvJz0bFyAJh9auBPeyJ4pct05FY/DOSwzVl5feUAGPLdHfpuRJdMW7JeH38wzjlKDXlK8SOOG5XW7a99BKSgW+cNd2bJgeIY0z4iTzqNyfC0a0DXJOAkmJcbIwdIyiY3xyNZdB+XqKTtl7ZbykHdss1j5zz2ZvnXSUzzG65vesFX0y8+vM7PkjBHZYUMhNW5yIdl88+HqvPNR8TJ9cIavFc3TY2V/Qakcfdt2+WBcEykoLJMLJpZ/5r42LEP+0Dpe0pJjJD7OY9S5Lv2m7ZY/HBEnY69rJFn9Kz73T28dJ8/f2Viapcf66jyvoFTueX6vzP20wLfPD8c1kfTUim/zLTNj5cIHdsinm4rlp2eby4vL8uW+/1ScI0KRU+f2KUSCnX36otKRVPeBkJEUIxufbS6Dn9kt2XsqvoK9u75IxvWqHOyMN25KjJw4LPDb3IuD0uXcjg2k1c0VHwZVkSwZlSlxcSLdxpZ/yOioxW8zs6T/tF3yc07lEY9NOw7K3oLqR/f4MLBxAZp8aOFOeHpS+uOxCb6jeOCaRjL/o3y5ZebeSsFOv7gkxHnk8VvSjdff8eweyS8qk9dXF1QKdhd0SJCXh2fKc2/lyqh55SerRg088uqIxtKhTbzvxKhfnm44O8m3/15dkqXDkfHShGBncmU4a/Ph6rxFWoz06tzA1+ghF6fKwVKRdndkVwp257ZPkBYZsXL7xanGl3Ktc10Wf1kgfTo3CAh2cTEiW2a2kM83FsqVU3dLbmGZxHpEHuyrzw9NlUsn7JAVG4uN9a/vkiQNk8oHCZo2jJHBF6fJn+/NNr7kEOzqXz0S7GzcZ5EEu053bZdNOwPH1kMFuwlXpsktF6bKvz/Ml0WfFUhBYamceXyi3NYjVdb/Wizdfh+FUw4d/j+8SeURuyOax8l3m4srBbszRmbLd9sP7VKWl51gZ+MCNPnQwp3wgnef80ILuWvGHnnpfwcqBTvva/U1enrS8LX4nsZyatsEI/Dp5ayWN5V/eZk3NEOObRkvJw0P/JKjJ8Jts1rIrU/tlvmfVYxmeLetI3/tDo+X44ZkM2Jncm04afOHWudrpjST9b8WSZ/H9lQKdl6XmQPT5bIzkkS3PerSVBncM9Woc128+9OwNnVAumTduFWCZ898O62ZfLGhSK57qvIl3oHnJMnEfunGe0gXgl39q0aCnY37rCbBblDPNPl5+0FZvOqAbwj91m5JctMFacZ8I4+hLvHCAAARlElEQVRHZFduqby3pkCGvbQv4I3/63NZsvbnIvlkfVElnTWbimXhl4XGz70jdgQ7GxeRjQ/tUE54ell2xBUNpf1t22Vnfqlsn5UlxQdFVm8okkv+scvXyh0a7DzlJ7c2mTHSJDVGHh+YIQlxIqeOLL8UO+bSVLmtZ6p0uD3b2JZ30ZG8V0Zkysl3bpdfdgd+WdIR8nVPNpPZy/KMaQtcirVxYdns0A6lzk9qFSfLJjQ1rsTopVK9FKujxJ9+Vyij/7VPvvilfD70wpGNpcsJiXLikO1SVCzSukmMXNUlWfp1TzGmCujSrlmsrHy4mVwxcYcs/758ZE6XrLQYWfNYM5ny6n6Z8vtUBn8ynVOnU3XO+H3qAsHOZgUVweEQ7CJAqquX1DTYPbZgv6zaWCydj42Xo7Liqm1GaZn4JujqSXPRpwXy9Nu5ldY5UFQm67aVj87ppaqfp2fJgcIyKSiqPCP32bfzQn5w+G+UEbu6qq6632+kJ7wjMmLk86nNjQncw/61zzhwrdE9uaXy0bdFxpw7XbocEy8LRjcx/nvojD3S4Yg46XxcopxwZLzszS+Vo27d7qvbD8c3lcMyY2TVd0XG3LpjWsZJxzYJ8vZnB0KOYiwdnSkdj4qXNgO3S35xGcGu7sun3hxBpHWuDVr3WDPZm18mf7q3/EuIBrvjWsXLolUH5LFFufL1byWiI8ubZ2YZI9Pvf1UgCz8tkFsvTJWjW8RJgwSPb8RO13/59nQ5/9Qk+frHItm4pUR0nupp7RJk685S6fz3HCkoDpwqc3fPFBnZq6Hc8MguWfRV+Rd4gl29KTXfgRLsbNxn0QQ7fdMH3zwx5dqGcnRWxaXV09slGh8AH35Tcbmp5KBI70fL7xrUsFVWJlJYXGa8The9lKVLzt5S3yUsna9xeaeKuSHBlF/9XCzfh7nbkGBn4wI0+dAiOeHpnXyLR2dKTKzHmEzuXYJvntBaXDutmWzbXSq/ZJfI+ac2MEYkdEpBn67Jsmd/qbQfEnjp9cazk2RA9xRpf0S8vPxeviz49IC8FzRKrdt97uZ0ubRzktz29G6Zt6r8PcOIncnF4aDNR1LnWk8L7m4spxyTIGfq1JbfPzeDb55QllfuSJez/9BAhs/cI0/emiFPvLFfMlJj5E/HJRrz7oL31+24BLn0j0ly9TnJ8uXGInnx/Xx5cUXlu8n1is6469LltRX5MnDmXl8PEOzqXzES7GzcZ9V9IOiE27VPNpfd+w+KhrLERI8k/R7Cpr+VW+mu2BE9Uozfj3s9VzToXX5mkm8EozqC/5vWTFb8X5HcPD387fbRUBLsolFzxjrhTnjDe6TI3b0bys/bS6TnhJ2ydX/FqLB/sGuaEiNv3ZcphzeNlZPvzJbs/aWic4j0zsEeY3fIA33SKt0V6xW8olMDeXZwhu/ylb/saUfGySvDGxt3iE+et0+mvlV+By7Bzhn1Z1UrwtW5Bq8X7mxsHM51U3cGXDYNDnazbkmXSzonGfNA9UvGnCHp0v3kJBnz0h4pLZVKd8X6t1GnKVwzZacsWRs4xSYzOUbmj2wsHdvEy7IvC+SqaYGPBSLYWVUptbcfgl3tWdb6lqr7QNCRhKEXphhv5qKSMmP4/odtJbL6pxIZdVmK3NA9RY4YWDHC8ea9jSU9OUbOHLPDuAPq4tMbhHyul95k4f8AlVt6pMqevFKZu7ziGUabd5bIx98Vyz1XpIZt85IvC+X5D6t+1hjBLiyhY18Q7oT38aSm8r9vC2X4y+WXX/0X/2B3Yss4mTOisfR/bLfxeAZddP7n039rJIP/uVdeGZLuC3aXnpIo3U6sGGXu0DpeTmwTL6+8H/iMrhnv5Mn15yTLuSc2kL5TdlZ6pAkjdo4ty1pvWLg6f25AI2mTFSeXPrTLuMzvv/gHO70a8+nkpjJzSa48827FZ+qkq9KMG+JOPLLicSc60j34r4Gfzzpi99l3RbJhS8VzS5evLTQ+32fckWHcmLTgi/LLr/4Lwa7WS8L0DRLsTCeOfgfhPhCq2nKou2L1TqusxjEycW7lk2RRcZk89375B8XKCU3Eo7PPf1/SUz2iDyXO83tsyYYtxfLE4lwZeXla2MYt/rxAZn9EsAsL5cIXRFvfShV8KbY6Pv/n2N1+frJxWTXcMvaVffLhhooJ58GvJ9iFE+T3XoGa1HmoS7FVyerdrN7n2J1xdLyMv7Zh2E54c1WBPPJ2xUh0qBUIdmEZbfcCgp3tuqTigKL9QNAJsAPOT5G2t1fMKXq6fyPpfnKiFAb+kQljZzp/rtPdFQ9vtZKEETsrte21r2jrW1vxw9PNZepr++XpZdU/DV9fqxPIszJiAx7pU1MJDXY/z8iSzsO3y8Yd/OWJmno6ef2a1LleadEHFF8R4q+mBJtdd2aSTLy+YcCVmtpw1Rs6Zr+bJ5PfqD4A8lleG9q1sw2CXe04mrKVmnwgmHJAJmyUDwMTUOvJJt1Q39oV1Hg9KUiTDpM6NwmWzVYpQLCzcXG44QOBk56NC9DkQ3NDfRPsTC6ierB56rwedJLDDpFgZ+MOdcMHAsHOxgVo8qG5ob4JdiYXUT3YPHVeDzrJYYdIsLNxhx5x0zbJ+/35cTY+zKgPLSXBI7/MyIp6fVas3wJOr2/tHWq8ftdobRw9dV4bimzjUAQIdoeiZfFrZy3Nkwfm73dkuNMT3gO99Y9Rp1isyu7sIuDk+vaGOmrcLtVWd8dBndedvVv3TLBza8/TbgQQQAABBBBwnADBznFdSoMQQAABBBBAwK0CBDu39jztRgABBBBAAAHHCRDsHNelNAgBBBBAAAEE3CpAsHNrz9NuBBBAAAEEEHCcAMHOcV1KgxBAAAEEEEDArQIEO7f2PO1GAAEEEEAAAccJ2DLYbdmyxXHQNAgBBBBAAAEEnClw2GGH2aZhtgx2ttHhQBBAAAEEEEAAgXokQLCrR53FoSKAAAIIIIAAAtUJEOyoDwQQQAABBBBAwCECBDuHdCTNQAABBBBAAAEECHbUAAIIIIAAAggg4BABgp1DOpJmIIAAAggggAACBDtqAAEEEEAAAQQQcIgAwc4hHUkzEEAAAQQQQAABgh01gAACCCCAAAIIOESAYOeQjqQZCCCAAAIIIIAAwY4aQAABBBBAAAEEHCJAsHNIR9IMBBBAAAEEEECAYEcNIIAAAggggAACDhEg2DmkI2kGAggggAACCCBAsKMGEEAAAQQQQAABhwgQ7BzSkTQDAQQQQAABBBAg2FEDCCCAAAIIIICAQwQIdg7pSJqBAAIIIIAAAggQ7KgBBBBAAAEEEEDAIQIEO4d0JM1AAAEEEEAAAQQIdtQAAggggAACCCDgEAGCnUM6kmYggAACCCCAAAIEO2oAAQQQQAABBBBwiADBziEdSTMQQAABBBBAAAGCHTWAAAIIIIAAAgg4RIBg55COpBkIIIAAAggggADBjhpAAAEEEEAAAQQcIkCwc0hH0gwEEEAAAQQQQIBgRw0ggAACCCCAAAIOESDYOaQjaQYCCCCAAAIIIECwowYQQAABBBBAQFasWCFLliyR4uJiNCIUiI+PlwsuuEC6dOkS4Rrmv4xgZ74xe0AAAQQQQMD2AmPGjCHURdFLGu7Gjx8fxZrmrEKwM8eVrSKAAAIIIFCvBO655556dbx2OtjJkyfb5nAIdrbpCg4EAQQQQACBuhMg2EVvT7CL3o41EUAAAQQQQMAEAYJd9KgEu+jtWBMBBBBAAAEETBAg2EWPSrCL3o41EUAAAQQQQMAEAYJd9KgEu+jtWBMBBBBAAAEETBAg2EWPSrCL3o41EUAAAQQQQMAEAYJd9KgEu+jtWBMBBBBAAAEETBAg2EWPSrCL3o41EUAAAQQQQMAEAYJd9KgEu+jtWBMBBBBAAAEETBAg2EWPSrCL3o41EUAAAQQQQMAEATsFu7i4OOnatausWrVK9u3bF3FrzzvvPFmzZo3s2LEj4nVq44UEu9pQZBsIIIAAAgggUGsCVge7vn37SlpaWsDxb926VRYtWiSpqakyevRomT9/vqxevdr3Go/HU6m9ZWVlxs/0dw8++KAsXrxYVqxYUWsukWyIYBeJEq9BAAEEEEAAAcsErA52EydOlMLCQsnJyfG1UYPdggULQga7448/Xq6//vpKHnv27BENVjExMTJp0iSCXX6+ePLy8sqSk5MtKx52hAACCCCAAAL2EqiLYPfNN9/I3LlzK0F4R+w0tG3evFnmzJljvCZ4hG/kyJGyadMmmTFjBiN2vyvmE+zs9cbiaBBAAAEEEKgLATsGu4MHD4qGu0cffVRKSkoCWBITE2Xs2LHy8ccfy8KFCwl2BLu6eNuwTwQQQAABBOwpYHWw0/lwP/74o7zxxhuSkJAgDRs2lGbNmkmjRo1k2bJlIefY+cv16NFDzjrrLOMyrIY/5tiV6zBiZ8/3F0eFAAIIIICApQJWB7vgGw70Jggdldu1a5dxaTXUzRNeEA2AQ4cOle3bt8u0adOMHxPsCHaWvmHYGQIIIIAAAnYWsDrYxcbGioa50tLSSiwNGjSQYcOGybx582TDhg0Bv4+Pj5cRI0ZISkqKPP7440a4I9hVEDFiZ+d3GceGAAIIIICARQJWBzttVp8+faRdu3ZVtnDp0qXGHDrvoq+95pprRMPd7NmzZf369b7fMWLHiJ1FbxV2gwACCCCAgP0F6iLYDRo0SLKysmT58uUhgfSu2ezsbON3vXr1kk6dOklRUZFxl+y6desC1iHYEezs/y7jCBFAAAEEELBIoK6CXUZGhkyYMCFsK/WvSmgI1FCnd8sGLwQ7gl3YIuIFCCCAAAIIuEWgLoKdPodOg91LL70UkllvpNi2bVtEXUCwI9hFVCi8CAEEEEAAATcI1EWw0ztf9WHEoW6gUHN9HMrMmTMj4vcGO318ysqVKyNap7ZexJ8Uqy1JtoMAAggggAACtSJQF8GuVg7cbyN6p6zeFer9+7G1vf2qtkews0qa/SCAAAIIIIBARAJOCHYRNdSEFxHsTEBlkwgggAACCCAQvQDBLno7gl30dqyJAAIIIIAAAiYIEOyiRyXYRW/HmggggAACCCBgggDBLnpUgl30dqyJAAIIIIAAAiYIEOyiRyXYRW/HmggggAACCCBgggDBLnpUgl30dqyJAAIIIIAAAiYIEOyiRyXYRW/HmggggAACCCBgggDBLnpUgl30dqyJAAIIIIAAAiYIjBkzRoqLi03YsrM3GR8fL+PHj7dNI/UBzZ68vLyy5ORk2xwUB4IAAggggAAC1gqsWLFClixZQrg7BHYNdRdccIF06dLlENYy96UEO3N92ToCCCCAAAIIIGCZAMHOMmp2hAACCCCAAAIImCtAsDPXl60jgAACCCCAAAKWCRDsLKNmRwgggAACCCCAgLkCBDtzfdk6AggggAACCCBgmQDBzjJqdoQAAggggAACCJgrQLAz15etI4AAAggggAAClgkQ7CyjZkcIIIAAAggggIC5AgQ7c33ZOgIIIIAAAgggYJkAwc4yanaEAAIIIIAAAgiYK0CwM9eXrSOAAAIIIIAAApYJEOwso2ZHCCCAAAIIIICAuQIEO3N92ToCCCCAAAIIIGCZAMHOMmp2hAACCCCAAAIImCtAsDPXl60jgAACCCCAAAKWCRDsLKNmRwgggAACCCCAgLkCBDtzfdk6AggggAACCCBgmQDBzjJqdoQAAggggAACCJgrQLAz15etI4AAAggggAAClgkQ7CyjZkcIIIAAAggggIC5AgQ7c33ZOgIIIIAAAgggYJkAwc4yanaEAAIIIIAAAgiYK0CwM9eXrSOAAAIIIIAAApYJEOwso2ZHCCCAAAIIIICAuQJGsNu2bVtZ06ZNJSYmxty9sXUEEEAAAQQQQAABUwRKS0slJydHPCtXriw76aSTJDExkXBnCjUbRQABBBBAAAEEzBPQUFdYWChr1qwRz/z588uysrKkbdu2kpaWZt5e2TICCCCAAAIIIIBArQvs379fNmzYINu2bZP/BzZ+441QATDUAAAAAElFTkSuQmCC;imageBorder=default;" vertex="1" parent="1">
          <mxGeometry width="630" height="256" as="geometry" />
        </mxCell>
        <mxCell id="TR_LXy8-aTHuwuq-qnMh-5" value="" style="shape=image;verticalLabelPosition=bottom;labelBackgroundColor=default;verticalAlign=top;aspect=fixed;imageAspect=0;image=data:image/png,iVBORw0KGgoAAAANSUhEUgAAAnYAAAEACAYAAAA+xzu4AAAAAXNSR0IArs4c6QAAIABJREFUeF7t3Qd8FNX+9/FfQgmEFqQX5W+vf0Sv5UFRxAZ25YpiuyoqNhCvelVUmqjYe0cRe0EsF0VRsaKiKKKoWFBRaRI6JBACyfN8D8+sm7ibrNns7uzMZ16v+7qS7M7MeZ/f7Hz3zJlJzqRJk8pbtWplHTt2tMaNG1t5ebmxIIAAAggggAACCPhfICcnx1avXm1z5861wsJCy5k+fXr5dtttZ3l5eZabm+v/FrCHCCCAAAIIIIAAAhGBsrIyKykpse+++85yFi1aVN6iRQtCHQWCAAIIIIAAAghkqYDC3ZIlSyynqKioPD8/P0ubwW4jgAACCCCAAAIISKC4uJhgRykggAACCCCAAAJBECDYBaEXaQMCCCCAAAIIIMCIHTWAAAIIIIAAAggER4ARu+D0JS1BAAEEEEAAgZALEOxCXgA0HwEEEEAAAQSCI0CwC05f0hIEEEAAAQQQCLkAwS7kBUDzEUAAAQQQQCA4AgS74PQlLUEAAQQQQACBkAsQ7EJeADQfAQQQQAABBIIjQLALTl/SEgQQQAABBBAIuQDBLuQFQPMRQAABBBBAIDgCBLvg9CUtQQABBBBAAIGQCxDsQl4ANB8BBBBAAAEEgiNAsAtOX9ISBBBAAAEEEAi5AMEu5AVA8xFAAAEEEEAgOAIEu+D0JS1BAAEEEEAAgZALEOxCXgA0HwEEEEAAAQSCI0CwC05f0hIEEEAAAQQQCLkAwS7kBUDzEUAAAQQQQCA4AgS74PQlLUEAAQQQQACBkAsQ7EJeADQfAQQQQAABBIIjQLALTl/SEgQQQAABBBAIuQDBLuQFQPMRQAABBBBAIDgCBLvg9CUtQQABBBBAAIGQCxDsQl4ANB8BBBBAAAEEgiNAsAtOX9ISBBBAAAEEEAi5AMEu5AVA8xFAAAEEEEAgOAIEu+D0JS1BAAEEEEAAgZALEOxCXgA0HwEEEEAAAQSCI0CwC05f0hIEEEAAAQQQCLkAwS7kBUDzEUAAAQQQQCA4AgS74PQlLUEAAQQQQACBkAsQ7EJeADQfAQQQQAABBIIjQLALTl/SEgQQQAABBBAIuQDBLuQFQPMRQAABBBBAIDgCBLvg9CUtQQABBBBAAIGQCxDsQl4ANB8BBBBAAAEEgiNAsAtOXwamJevXr7e6devGbM+GDRts3bp11rBhQ/d7/TsnJ8dyc3MD034aggACCCCAQE0FCHY1lavmfd99952dcMIJ7lUjRoywI488MkVbir3aq6++2l588UUXgD744AOrU6dOwttfs2aN5eXlpT0slZWV2bHHHuv2++6777bzzz8/ss9//PGHXXzxxe53KtptttnGnnrqKTv00EOtQYMGNnnyZNtqq60SbiMvRAABBBBAIIgCvg12Y8aMsVtvvTVi3rZtW9trr73sH//4h+25556mf/t5+eKLL2zXXXd1u6i2nH766Wnd3TPPPNMefvhht02NgFUX7JYvX2433HCDTZgwwb755hvLz8+3ww47zAYNGmR77713re67tjVlyhS3TwcffHBk3xYsWGDt27d32+rSpYvJUIsC33777ecCqrcoKO+zzz72n//8x/3oscces1NOOaVW91Mrmzhxotu+am+TTTap9fWzQgQQQAABBGpTwLfB7uabb46ctCs3WKHjww8/dCd/vy7ZFOw+//xzN/K1aNGimJzjxo1zI2m1tbz//vvWvXt3t7pVq1ZZ48aNI6u+7rrr7PXXX7fBgwfbIYcc4n7++++/22abbeb+W2FTtVG/fn13ufaiiy5y/3377bdb69ata2sX3Xp0cDRq1Mj999tvv209evSo1fWzMgQQQAABBGpbICuC3b333uvmVSnMKWR4y7Rp02y33XarbZNaWV+2BDsVwOabbx4Jdcccc4wLcfJWgFLwUltqc7Tq2Weftb59+8YMdrHwo4Pgk08+aSeeeGKt9FF1K5kzZ46zIdhVJ8XvEUAAAQT8IpAVwe6HH36wrbfe2pk98MADds4557j/1uW4l19+OWKpifSPP/64vfLKKzZ+/HjbcccdrU+fPnbJJZdERl40wqP5b23atLFHHnnEvXfZsmV20kknuf8+++yz7aijjnL/rXVre5qYr0CpkaMLL7zQ/U7zu0aPHm3PPfecffbZZ25f7rrrrsjIUlXB7vvvv7exY8faCy+8YHPnzrWePXu6+WPRlzzXrl3rfq/tvPPOO26bRxxxhJ111ll2wAEHVKifoqIiNydNbf/ll19cWxYvXuzmo2mp6lLs9ddf70bHtGjdaq9uRtCiuXZaz6abblrB+MEHH3Tb+vjjj1275XXaaadF5uR5bp07d7bLLrvMrrjiCrv//vvt+OOPd6NzuqSqPtWitmjETZdUNSJ2+OGHu0uf+rlMnnnmmchcRW8nNJKny8w//vijaf+1aKQvegRXfaL36tKyjA888EC7/PLLrWvXrlZeXu5G4BQSX331VRdqtb3jjjvO+vfv79anvpT/u+++6/6tWtKoYa9eveyCCy5wP9P2NX9Szi1btnTv1yXwbbfdtkL/8A8EEEAAAQTSJZB1wU4wCgDeCdcLLQoDCgK6JFd50Ql5xowZ1rx5c7vqqqvs2muvdS8pLCx0J+Q333zTzfXSohseFKa0ePPUNFFfYSw6rGmdv/32W4VNKUQq6GmJF+xmzZrlRhkFX3lRqPKChUJC9Ohk9GujRyoVZrXP8V6r91UV7HbffXcXTLUoIOoyd7xF2+rdu7f997///ctLNLonfy0aYdWND1qXgpRubNCikKd5fLEWBcWTTz45EioVTp944gkXxmK9R+H866+/jlwiVvjVPDwtb7zxhgvLlRfNyXvvvfdMwdT7clD5Ndr3c88914W0WKZnnHGGPfTQQ26OoNZXedHl4K+++sp9cWBBAAEEEEAg3QJZGeyiT/beaJ5G3/r16+f8NA9LJ2ed4O+88073s/POO8/uuecemzRpkht10aJAp5GcoUOH2siRI93PFEZWrlzpJvTr5KzRHI0m3XjjjRXCml47cOBAdyemgqI3P80LUbGCnX7XrFmzSKhTkCsoKHDr8d6vUSCtU8FV7dC6FQQVCL3QpxsxdEOGFoUUjTJqUYi68sorTZcQBwwYEKmleMFOQc17rIje+9FHH1VZf9HG2i+Fp6efftpuueUW9z5tt1OnTpFg561Ml3c12qgRPL3mvvvui4S9Rx991JnvsssutuWWW/4l2Mlx1KhRkZClkTWFsoMOOsjeeuutvwQ71UP0iJn6XMFcI6Qa1VMgX7Jkift/uav/ddlZoVwHg/ZFAVfBTaO+3hcFfSHYeeedrUOHDu7/t99+exfstW6NHmqdGsnTzxRqNYLKggACCCCAQLoFsjLYacRElw21vPbaay6oRY+w6NKqApOCi0ZVdMlQiy5vqsHefDEFBoVEb9RKJ3X9fubMmdaqVavInbe6tKhLjtFhTY8TGTJkiFuvQqHCoZYvv/zSBZhYwU6/8y4XKih6d3QqoCioaFFI0uVib3/1KI+SkhJ3iVWXPBVcdFlQo1VaNFdNc9a06K5S727hRO6K1SVK7zKrPBUSq1p0Z6gsFTh1uVuLQpEejaJFP9PvvBE7/UxuulQZ/Zw53WnrBe7KN094l4G9ETutQyN+CmBaXnrppcilcgUv76YOb8ROgVejalr0e40wxlpUC7JVjcyePduFPt1Zq2XhwoUu1OtS7D//+U/3s+ibJ6L359NPP3X1o8Vrd3T/VAnKLxFAAAEEEKhlgawMdpqzpVCmRZfkNMLljTzpkqpG5bxFAWzYsGHunxr12m677SJBTq9VKNIlWo3gaO6WRtEUcDRp3gtbXmCKd3n1+eefdyM+0QEg1mujA6lGxzRKpmXFihUuiGr517/+ZRrF0qLQqhEnzQOrvGiemP6nOWvqxOjHg+i1iQQ7zaHzLr1qJEwBM96iUb969epVWX7e5djoYDd9+nQ3Ghe9pDLY6cYKjSJq0chrkyZNYu6zLs3fcccdbiSv8qK+k2e8YKfROI32VbUoOHqBt5aPWVaHAAIIIIBAXIGsDHYavfHmbSlw6H8afdGiy346IXuLRsY0t0uLRuJ22mmnCiNsCjNanyb/a3RPoz0aLdIz6DRnzJtfp/fHC3axAkCs10YHAs1r0zP5tEQHLG+OX/RNIgqdGpFU0NMz5rQo1EVfStX8Mu8mi0SDnV6nS6feXMGq5uIpqHh/7UHvizUXT5ctNfIXHew0sqgRrHQFOz22RU5a4oUrPd7Fu5ta7VB/L1261I3wafHCaCLBLpaDwvb8+fOrfXYgn0sIIIAAAgjUtkDWBbvouyQ1wqYHyGrxwp4mr8+bNy8yghd9idYLLgpA+++/v3uf5t4piChI7bHHHm50SSdrXeLTpTmFO41E1Uaw0yidd+erRuU0Oqcl+hKt5p9p27oUrEWBU/umO0ejR6MU7LR4l0e1z3rwrzeqlsiInd6v+WpavxbdpHDppZdGakzBUWHYu3zsGVc3H6+6YKe7lL15ed4NLN5Gk70Uqzbo8rqWTz75xPVp5UV9rBE7hXY9Qkc30ERfwvWCnS7BH3300e7tqjPvuXp6T7du3dzP9cWg8l3KtX2Qsj4EEEAAAQQSFciKYKfLpbqZQfO7vECgBuoOx3333de1NXpkThPddfOEbkDwHmOiuVK6ZKpF87qaNm1awUgnc43mKUBFL5of5p3c/86InS777rDDDm5VeiSGbmrQXDnvgbcKYpqgr0uFGuXy7vLVfmjfvD+PpRCk+V+ay6VLx97dtF6wi76sqZFJTeDXfuqxId5S1UicRus0auctstOo1+rVq90NALoDVkFGATL60Sj6b92goVE8bU9z7bxLy9UFu+iRS914oL8YoX3UupINdtHz3zTSqTl5uuHBe/yN6kV9IEeN2ukZefpzZQrZ3l+28IJd9Mie+kiXbrWf2kfvEq/CobduXfqVl0Zd4/2t20QPTF6HAAIIIIBATQSyItjFaljlkRKFNU3U9wJS9Hs0iqdgFB1goh+ZotcqdCnUabK99/w3/Vw3GCgYaPk7wa5yeNRlPV0mjh4Fqtwu74YMjZQp3MV6JIr3Hi/Y/frrry5AVvXa6v6kmEYmTz311Lj1o7CnG0QUXBQYo/+0l/cmhSg9EkaXxKsLdnpcS+WRNO/PriUb7PTYGz1rUM+hq7x4+6jQH2tunfd6L9ipD3UzSrStd1OHAqP6M9biPbqlJgck70EAAQQQQCAZgawJdt7fLtWlTF360uha5UXBQyNcevCsdzJW2Lvttttsiy22qPDym266KXLZMfqSru7W1CiYFgUBBSdviRfsosNa9CiiRhe1P1o0wuXN9dPdoxrF854fp+3oTlhvu3q9LiPqcrHXDoUIPV7Ee/6aF+z0Wo38aTK/Li9q0ciZ7pb11lddsNN79F6N9kWHNo1GDR8+vMIDgmWsy7UKL96+qW8U/BSYNOpWXbDT9jT65T3sWf/2HhESK9hFXzqPd1es9tu7PKpgrMex6MYT7zEy2keNFGpkTg9d1p3UnpfmAKp/9EgWLdE3fGhETzfGeOvRlwSN8GlRP2o01bvrWj/TXcGyqHzDSDIHKe9FAAEEEEAgUQHfBrtEGxDrdTqx6/EgGmmLnvCfzDpr+l7d8aq7arUvle/QVMDQBP+OHTvGXL3aoee+aQ6Ynn9X3aLAocDnPfKkutfH+r32R39hQ9vU3cLxFo2M6TKuRjm1vejHmSS6XQXOn3/+2d09qseu1GQd1W1LI65ylLEu50cvmoupbbZr167K1chUbS0tLXXr8W7U8d6ksKtHpOh3VT3gubp95fcIIIAAAggkKxDIYJcsCu9HAAEEEEAAAQSyUYBgl429xj4jgAACCCCAAAIxBAh2lAUCCCCAAAIIIBAQAYJdQDqSZiCAAAIIIIAAAgQ7agABBBBAAAEEEAiIAMEuIB1JMxBAAAEEEEAAAYIdNYAAAggggAACCAREgGAXkI6kGQgggAACCCCAAMGOGkAAAQQQQAABBAIiQLALSEfSDAQQQAABBBBAgGBHDSCAAAIIIIAAAgERINgFpCNpBgIIIIAAAgggQLCjBhBAAAEEEEAAgYAIEOwC0pE0AwEEEEAAAQQQINhRAwgggAACCCCAQEAECHYB6UiagQACCCCAAAIIEOyoAQQQQAABBBBAICACBLuAdCTNQAABBBBAAAEECHbUAAIIIIAAAgggEBABgl1AOpJmIIAAAggggAACBDtqAAEEEEAAAQQQCIgAwS4gHUkzEEAAAQQQQAABgh01gAACCCCAAAIIBESAYBeQjqQZCCCAAAIIIIAAwY4aQAABBBBAAAEEAiJAsAtIR9IMBBBAAAEEEECAYEcNIIAAAggggAACAREg2AWkI2kGAggggAACCCBAsKMGEEAAAQQQQACBgAgQ7ALSkTQDAQQQQAABBBAg2FEDCCCAAAIIIIBAQAQIdgHpSJqBAAIIIIAAAggQ7KgBBBBAAAEEEEAgIAK+DHZFRUUB4aUZCMQXaNSokVHrVEjQBajzoPcw7ZOA6twvC8HOLz3BfoROgBNe6Lo8lA2mzkPZ7aFrNMGumi5nFCN0x0QoG8wJL5TdHrpGU+eh6/JQNphgR7ALZeHT6IoCnPCoiDAIUOdh6GXaSLAj2HEUIODmZDA6TSEEXYA6D3oP0z7m2CVQA5zsEkDiJVkvwAkv67uQBiQgQJ0ngMRLsl6AETtG7LK+iGlA8gKc8JI3ZA3+F6DO/d9H7GHyAgQ7gl3yVcQasl6AE17WdyENSECAOk8AiZdkvQDBjmCX9UVMA5IX4ISXvCFr8L8Ade7/PmIPkxcg2BHskq8i1pD1Apzwsr4LaUACAtR5Aki8JOsFCHYEu6wvYhqQvAAnvOQNWYP/Bahz//cRe5i8AMGOYJd8FbGGrBfghJf1XUgDEhCgzhNA4iVZL0CwI9hlfRHTgOQFOOElb8ga/C9Anfu/j9jD5AUIdgS75KsoTWsoKSmxdevWWZMmTeynn36yZcuW2W677ZamrQd7M5zwsqN/y8rKbOnSpdayZUtX/9OmTbODDz44O3beB3tJnfugE2LsQvRnO3WdfB8R7Ah2yVdR1Bq++eYbmzBhgv3yyy+2/fbb2/HHH2/t2rWLvOKZZ56x5cuX2znnnBN3u3fffbctWbKkwu/PP/98e+mll+yLL76we+65x1544QWbOXOmDRs2rFb3P6wr44T3154vLCy0Z5991mbNmuVq+PDDD7cuXbrYqlWr7NZbb63wBvldcsklFX6Xm5trbdu2ta5du9pOO+0UqdnKW9phhx2sT58+FX48ceJEF9qilyOOOMI2bNjgtvPqq6/aggUL7Mwzz7T33nsvrGX7t9tNnVdN5tX2ZZddZg0aNHAv1me2avm44477296V3xCvrqdPnx75bP/xxx+p6ySlCXYEuyRL6M+3T5kyxa688ko7++yzbccdd3TBa/78+XbppZe6F61Zs8aOPfZY999jx461Vq1axdx237593Ul02223jfxeJ8a1a9e6P3vVsWNHgl2t9drGFXHCqwg6b94869+/v+23337Wo0cPN0o2fvx4u/POO23lypWujkeOHGkNGzZ0b6xTp47tuuuupjCo311//fWWk5Njs2fPttGjR9ttt93mRpr1pUbvv/rqq23o0KHWtGlTKygosK233rrCDmg7Grk49NBDIz/v1KmTe+2cOXNsm222MU6Af/8goM6rNvPqV18cGjdu7L5AjBkzxtXwJpts8vfBK70jXl3Xq1cv8tlOXSfN7D7P/bIUFxdbTlFRUXl+fr5f9om/n5lgT2go/cQTT7RTTz3VjjzyyMi7ysvL3QlOi4LfG2+8Yc2aNbOtttrKjjrqqLjBTqMSlS+z6oBfvHixGwGpPGKnkYzJkydHRgq7devmvmWyJCbACa+ik0KblquuuipSv94rKp/8ot8Z63cjRoxwI3f6wqNFge3oo4+2F198Me7JUidABcHTTz+9wo4pYH7wwQfu2Il1AtTIx+eff27t27e37t27u5Mzy58C1HniwU7TXS644AJ7+OGH3ee1t1SuMYUyBUBNCfDq7YcffnBXXfRZHb3Eq+voz3bqOvkjlmBXjSF/KzaxItOHQL9+/dwBHu9kopPlHnvs4U5YTz/9tN11111/K9hFh7nKwU4nz9WrV7sRFv3uoIMOMo38sSQmwAnvTyfNY9Mo3S233BJzDqcX3p588snIN2PVvE5wlYOdvnCcdtppdswxx1jv3r2TDnbRJ73KJ8BXXnnFnnjiCTvllFPs008/NX1TvuGGG/iCE3UIUOeJBTuN0P373/92o9bRX8Dj1djAgQNNUwV69erlNqDR6D333NMOO+ywhIJd9Oc5dZ3YZ3ZVryLYEeySryIz+/jjj+2aa65xwS7WooCsy0q6nKXLV/pvzV/SSEblRYFMcz0UALVodEM/ixfs9O1QH0L6fV5enunfgwcPdttiSUyAE96fTt6I2lNPPWUdOnT4C6AX3qK/wFx33XW28847R4KdphJo5Ezz4LbbbjsbNWpUZHQu0RE71a83P3XzzTd364gX7EpLS+3AAw+0hx56yF3W9f793HPPWZs2bRIrghC8ijpPLNiptjXH7n/+53/s5ptvdqPWVdWYpt28/PLL7su6vmAr0OnzuEWLFn8JdrHqOl6wo65rdlAS7Ah2NaucSu/STRPnnXeevfXWW27kovLy7rvvuhsdvFE0TcjVpSldvo0V7DT6pxOlFl2aV8iLF+zefPNNFyo1D0+L5uJpbpN+Xr9+/VppX9BXwgnvzx72Tia6Scerqej+T+RSrEYs9CVH4a7yKHaiwU7b1M1HWjSHT3fCxgt2mhOoY0khsm7duu49X3/9tTvRdu7cOejlm3D7qPPEgt3+++9vF154oaupK664wvbee2+rqsb0ZUKjdfoy9PPPP5tG9jRaXHnRpdhYdR0v2FHXCZd2hRcS7Ah2NaucSu9asWKFm1unA9cLZNEvUajTAa+hfS0aSdConG6iiBXsYs2xixfsNOfj2muvtUcffbTCqphflHjXcsKraKUvHfvuu6+ddNJJf0FMJNgpzGlkWvWuk2T0ehINdrHm2MULdt6IuI4BBUBv0T4oFLJsFKDOEwt2egJB8+bNTXexao6dAtv69evdlZZ4NXbfffe59+hzfvfdd3fTYWIFu1h1HS/YUdc1O3IJdgS7mlVOjHdpXsbrr7/uLhltscUWbnRBw+6af6HQpzlJuqNViyaBa95RrMtdGtWrLthp4vmMGTPMm1unkQ19w9TlKH0AaeJurMu8tdbYgK2IE17FDp06darpkQ+aF6q5Qrqb9cEHH3RBTTfl6M5X1Xb0lwdduqoc+r766itX/9HTDmo72Gk0XJfKLr74Ytt0001twIABLszNnTvX/ZvlTwHqPLFg540ya47oGWec4Ubj9LlcVY0p0Gl0T1/YdUXGm0oTvcV4N0/ECnbUdc2PXIIdwa7m1VPpnbqE9dhjj7n/adFJ76KLLnInGY3MVR6dGzRokO2zzz6RR6B4q4sX7BTmdHlpyJAhLtTp/d6lJs2r00lYgVGLJpBz80TiXcsJ769Wb7/9truBQnOGtJx88snuLlUFM++xPdHvmjRpkjup6XfRl1/15UPHgO6w1VJbwU7b0lw+TYHQFxuNmusxKp999pk79nQJViPZ3B1OsEv0kyDWaPSXX37p7o7VFxlNs6mqxvS8UY0Yq+ZjLfGCXfRnO3WdaG/Ffx3BjmCXfBVVWoO+5elZXXrmlveok1rfiJk7kelSU/Q8Oo2sqKhjzfNLxT4EZZ0Eu/g9qSCm58358ZKmng2p4y165NC7k99PH+5+OU6o89rpiVg1prvJzzrrLPd0BM3JS2ahrpPR2zjlwC8Lz7HzS0+wH6ET4IQXui4PZYOp89R0u66Y6BmlGi3WnDw/fglKTcv9uVaCHSN2/qxM9iqtApzw0srNxjIkQJ2nBl7zqzVyrGkI0TfvpGZrrLU6AYIdwa66GuH3IRDghBeCTqaJ3BVLDYRCgGBHsAtFodPIqgUIdlRIGASo8zD0Mm0k2BHsOAoQYCSDGgiFAMEuFN0c+kYS7Ah2oT8IAODBrdRAOAQIduHo57C3kmBHsAv7MUD7eSI/NRASAYJdSDo65M0k2BHsQn4I0HwJcMKjDsIgQJ2HoZdpI8GOYMdRgADBjhoIhQDBLhTdHPpGEuwIdqE/CABgxI4aCIcAwS4c/Rz2VhLsCHZhPwZoP5diqYGQCBDsQtLRIW8mwY5gF/JDgOYzx44aCIsAwS4sPR3udhLswt3/tB4BBBBAAAEEEEiJQHFxseUUFRWV5+fnp2QDrBQBBBBAAAEEEEAgPQIEu/Q4sxUEEEAAAQQQQCDlAgS7lBOzAQQQQAABBBBAID0CBLv0OLMVBBBAAAEEEEAg5QIEu5QTswEEEEAAAQQQQCA9AgS79DizFQQQQAABBBBAIOUCBLuUE1e9gTFvFNnwcausaF15hvfEP5tvVD/HhvdpYv0ObuSfnWJP0i7g92ODOk17SQR2g36udeo8+8qOYJfhPtvsrIWEuhh9oA+T30a3zXDvsPlMCmTDsUGdZrJCgrNtv9c6dZ5dtUawy3B/tTh1QYb3wL+bX/JoO//uHHuWcoFsOTao05SXQuA3kA21Tp1nTxkS7DLcV9lwQGeKiA+STMn7Y7vZcmxQp/6ol2zei2yodeo8eyqMYJfhvsqGAzpTRHyQZEreH9vNlmODOvVHvWTzXmRDrVPn2VNhBLsM91U2HNCZIuKDJFPy/thuthwb1Kk/6iWb9yIbap06z54KI9hluK/8fkBfc1wTm/X7envy4zW1JjX23AK7Z+Jqm/br+irXyQdJrZFn5YoyfWwM693Yflm0wR6bUnXtU6dZWV6+2ulM1vpJXRva9pvWtaueW8Xnsa+qouY7Q7CruV2tvLO6A3qn9nXshcEt3LZWrSm36bNLbfQJAHvTAAAUbUlEQVQbq+3TOVWHolrZOTP76d429tkP6+z425fV1ipNJ8Irxi63B97hhFlrqAFcUXXHxoW98u24bvm211WLU9L67+9sbbN+K7Wjb6669gl2KeEP1UqrqnXvHNBjyGKbt7ys1l2eGVRgu2+bZ1ue9wfBrtZ1M7NCgl1m3CNbre7ktd829Wz8lS3tkTeLrE2zXOu6fX1r1riO9blusb37Q2nK955gl3JiNhBHoLpj455+zezorg2tw1kLU2JIsEsJKyuNIVBVrXvngK7/WWQ/LNpQ634Eu1onzfgKCXYZ7oLqTl6VD+q6uWZf3draGuTl2BbnbvyG1blDXbusd2Pbom09++CbtXbpUxuH1J+9sLndN3G1C4D61nfNiU3tgodX2G/LyqzX/+ZZn70b2hn3L7dbTm5qb35ZYkft0cB27FTPxk4usjHvbRxNqxzs4m2rcV6OjejTxLpun2crijbYTS+stre/W+fW0SI/10ad3NT+t9PG/et3cGO78lFG7DJcer7ffHXHRlXBriZ1KpChxzS2Xv9oYL8Wrrfdt65vX89hxM73hRKAHaxpsNPn7qgTmtpuW9e3X/4otUEPr7TCoo2jegMPzrfee+VbnVyzp98rsvsm/3mF5IT/08DOPLiRrd9gVq9ejnVqXYcRuwDUkdcEgl2GO7O6k1esb2sXH9rIrji+qbXvt9C2aJVr71zbylYWl9m3v5baXjs0sG9/L7X9hi22X+5vY5//sM6OvXWZ3XVaMzuxR77dM2GVDX1+tb06eBPbtGVd63zxIhfemubn2u+LNti6DeW2dfu6dsw1i+39H0srBLvt29aJu60nBxZY1x3ybOqsEttly/rWvEmudTxz40iKgugmTXPtg5kl1nnzetayWR0uxWa47rJh89UdG/GCXU3qdH2ZmWq45z8a2iffl1hBfq5tt1k9+2DmWi7FZkOxZPk+1iTY6Uv+jFtaW4umufbRNyW2x7Z5lpNjttX5f9jRu+bZ7WcX2NRvS6xJo1zrskV963vDEnvz23XWr3tDu6lfgf04f739sWyD7b1Dnq0oLiPYZXkNRe8+wS7DnVndyStWsNtry3o2YWhL6zNqiZ1+QL4duGsD2/ycP2xtabmde0BDu+ZfBdbjikIb3reJC1JbDVhkM25ubY0bmC1aUW57XVnoQt9rn66188ascOFtzh/r7YARS5zGwjFtbdz7a2zg2I2/8+bYPX5+QdxtfbtgvenkqOWA7evbc5e3cPvXvHGuPTiwuftvbwSPOXYZLros2Xx1x0a8YFeTOn3v+3X2xyPt7Ol3i13da+FSbJYUSgB2sybBrs/uDez+Ac2t19BCdyPa5i1ybdotbeyBiavtyudWmYKfPpPbNc21L25rbS98uMZ93n97e2tbs67c/nFpoZPjUmwACqhSEwh2Ge7T6k5esYLdWfs1tOtPL7Btzv3DJl/d0orXlkUmkDeol2PzHmprw55YYctWl9ud52x83Xf3tnE/G3ZiU9tp4CL378NHLLaPf644KieO2Xe3ti9+KrU+ty2rEOwUDuNta/zUtfbwwALrvHl9J9qwfo79e/Ry23Ob+vbPbg2tbb8/50ER7DJcdFmy+eqOjXjBriZ1Om/xBntucAs7ZFhh5MYkgl2WFEoAdrMmwe7B/gV25J4NrO0Zf3626ou4bvg56oal9kD/Auuxc541apBjdXNz7O0v19pxty2zRWPa2eNvF9nFT6wk2AWgdmI1gWCX4Y6t7uQVK9i9NaSFbb9ZPTdp/O3hLa1l01zrfNEi15JtWtexj29qbcddv8Q0CrFgTDv779Q11nPXBtbp7IW28JF29vwHxXbM3n+Grcrz6OIFu6q2ddtZBZZX1+ywqxfb7MVl7s5XBbut2ta1cw9vbK1O+/NPpxHsMlx0WbL56o6NeMGuJnX6yQ/r7KObWttpty61CV+WMGKXJTUSlN2sSbAbcnRju+DoJhU+W+eNbmsTPlljdevm2OF7NLB+ty+ziV+VuC/r038qdcFuwcNt7dVpa+3M+5cT7IJSQIzY+asnqzt5ecHuoCGF1qF5HTv9wHzr3rmB3fj8SrthQpFdclgjG3xcU7vooeU2bupae21IC9u2Y93ICNkXN7W29i1ybcZPpdbz2iXukmzbTXLtp3nrbe8hGx8TUVWw0wfCjJ9L3Ty9qralD5Qp35S4x6Lo+V8XHNXEBbvZC9a7y8bPvV9sA8assKG9G9uAI5swx85fZejLvanu2FCw6713Q9vt4o1farQUl5idsX/DuMdEvDrVs+o0BeH3wg3WY+hi67FdfXt40Cb20bfMsfNlcQRspxIJdkdcvdh+XbLxrtgNG8yaNcyxD29sba9+usbdBHft8U3szF6N3bSXoSc0tXbNc23bCxbZkV3y7KELNrF3Z24csZs6qpVt2rKOdR+8yDaUm701spVbJ487CU5RMWKX4b6s7uTlBTvtZnm52aLlG9w8oJEvrY7s+VMXFNjBuzZ0E2fXrS+3k29eapNnbbwj9fZ/NbVTDmhk1z6z0m59rShyE8WdL6+yES9sXIfC27Qf19kJd2z8Bhf97W7y0BbWZcv6tsuFf7i7aeNta3T/AneS1T4WrthgLZrUsYsfXm6Pf7jGdMmg914b92/lmjJrVD/XrnxsuY1+l+fYZbj8fL356o4NBbu+3fMrtGHmnI03DtWkTk/Zu6HdckaB1aljtn5DuRWvK7cZs9fZMTzHztd1EoSdSyTYRbdz7bpyd8XmvAPzbfiJzVzNlpWb3TthlQ0bv9r00OE7zi5wbykpLbeS9eU27fuNzyPVXLz3r2tt+Q1yIueUvPo5BLsgFJL3Bbe42HKKiorK8/MrfkAGqI2+bkp1J69Ed15z67ZqlWtfz6/d5xzVyTHbY/N6Nm1OaeTmiHjb6lCQa/VyzeYs/etDNPN1S32LXJu1MPH948GvifZ+MF+X7LFRkzqVZJeOdW3mvPVuNCORhTpNRInXVCWQbK3Hqlk9CmWLlnXsq3mxH2avu8d/XVJmxaWJFTp1nj01zIhdhvsq2QM6w7uf0s3zQZJSXt+vPFuODerU96Xk+x3Mhlqnzn1fRpEdJNhluK+y4YDOFBEfJJmS98d2s+XYoE79US/ZvBfZUOvUefZUGMEuw32VDQd0poj4IMmUvD+2my3HBnXqj3rJ5r3IhlqnzrOnwgh2Ge6rzc5aaEXrEpvjkOFdTevmG9XPsd9Gt03rNtmYvwSy4digTv1VM9m6N36vdeo8uyqLYJfh/hrzRpENH7eKcBfVD/oQGd6nifU7uFGGe4fNZ1LA78cGdZrJ6gjWtv1c69R59tUawS77+ow9RgABBBBAAAEEYgoQ7CgMBBBAAAEEEEAgIAIEu4B0JM1AAAEEEEAAAQQIdtQAAggggAACCCAQEAGCXUA6kmYggAACCCCAAAIEO2oAAQQQQAABBBAIiADBLiAdSTMQQAABBBBAAAFfBrv58+fTMwgggAACCCCAQFYItG/f3jf76ctg5xsddgQBBBBAAAEEEMgiAYJdFnUWu4oAAggggAACCFQlQLCjPhBAAAEEEEAAgYAIEOwC0pE0AwEEEEAAAQQQINhRAwgggAACCCCAQEAECHYB6UiagQACCCCAAAIIEOyoAQQQQAABBBBAICACBLuAdCTNQAABBBBAAAEECHbUAAIIIIAAAgggEBABgl1AOpJmIIAAAggggAACBDtqAAEEEEAAAQQQCIgAwS4gHUkzEEAAAQQQQAABgh01gAACCCCAAAIIBESAYBeQjqQZCCCAAAIIIIAAwY4aQAABBBBAAAEEAiJAsAtIR9IMBBBAAAEEEECAYEcNIIAAAggggAACAREg2AWkI2kGAggggAACCCBAsKMGEEAAAQQQQACBgAgQ7ALSkTQDAQQQQAABBBAg2FEDCCCAAAIIIIBAQAQIdgHpSJqBAAIIIIAAAggQ7KgBBBBAAAEEEEAgIAIEu4B0JM1AAAEEEEAAAQQIdtQAAggggAACCCAQEAGCXUA6kmYggAACCCCAAAIEO2oAAQQQQAABBBAIiADBLiAdSTMQQAABBBBAAAGCHTWAAAIIIIAAAggERIBgF5COpBkIIIAAAggggADBjhpAAAEEEEAgwAJTpkyxSZMmWWlpaYBbmZmm1atXz3r27GndunXLzA7E2CrBzjddwY4ggAACCCBQ+wJDhgwh1NU+a2SNCncjR45M4Rb+3qoJdn/Pi1cjgAACCCCQVQKXX355Vu1vNu7s9ddf75vdJtj5pivYEQQQQAABBGpfgGBX+6aV10iwS70xW0AAAQQQQAABMyPYpb4MCHapN2YLCCCAAAIIIECwS0sNEOzSwsxGEEAAAQQQQIARu9TXAMEu9cZsAQEEEEAAAQQYsUtLDRDs0sLMRhBAAAEEEECAEbvU1wDBLvXGbAEBBBBAAAEEGLFLSw0Q7NLCzEYQQAABBBBAgBG71NcAwS71xmwBAQQQQAABBBixS0sNEOzSwsxGEEAAAQQQQIARu9TXAMEu9cZsAQEEEEAAAQQyPGLXoEED23LLLW3evHm2fPnySH+cc8451qpVK1/9jdVkioVgl4we70UAAQQQQACBhAUyMWLXqFEjO/vss61169aR/Vy9erU98MADVlhYaIMGDbKWLVvakCFDEm6Hn19IsPNz77BvCCCAAAIIBEggE8Fu6NChlp+fb5999pl98skn1q5dOzv00ENt/PjxNnPmTIJdCuuruLjYcoqKisrVASwIIIAAAgggECyBdAe7Aw44wA466CB7//33beLEiTExY43Y7bbbbqb/NWzY0GbNmmWvv/565L2bbrqp9erVy5o1a2YLFy60l19+2VatWuV+37hxY+vdu7e7tKtLvnpf9GXfdPQmI3bpUGYbCCCAAAIIIGDpDnYDBw609u3b2+DBg+PqVw52hx12mO2zzz5WVFRkpaWlVlBQ4ALc7bffbnl5eTZ8+HD38/nz51uHDh3st99+s9GjR1uTJk0i7dMl3jZt2tjatWvtuuuuc69P10KwS5c020EAAQQQQCDkAukOdpo3l5OTY1dffXVCwU7BbcSIEbZgwQK744473HuOPfZYN3r37LPP2vr16+2kk05yl3GnTZtmubm5bv0bNmxw8/g6depkN954oxul0yVfhcaXXnrJpk6dmraeJ9iljZoNIYAAAgggEG6BTAQ7hS+FtXhL9IidApyC3JNPPunm32nxwp7+rXCndSnMffvtt+7y7tKlS93rhg0bZnXq1LFvvvkmsqkuXbrYl19+ac8880zaOp5glzZqNoQAAggggEC4BdId7P7updiePXtajx497O6777a5c+dGOmvUqFH2888/u0uuujSr8KdHp2h56623bPLkyXbNNde4wOcFPe/N06dPt3feeSdtHU+wSxs1G0IAAQQQQCDcAukOdgppCmu6G/bFF1+M4Osmh5KSEjf3LXrErmPHjjZgwAAX1vQ/Lbq8eu6559qkSZMqBDTdWHHJJZdY/fr13aNSLrroImvatKmbg5fJhWCXSX22jQACCCCAQIgE0h3sRKvQpWfZff311/b5559b27Zt7cADD7Q5c+a4ETgFOc2H06VUzaHT/yusaR6dbqDo27evuxyrwLTLLrvYTjvt5H6nYKj3epd6dcOFbrzQeseNG+cuy+677772/PPPp7WHCXZp5WZjCCCAAAIIhFcgE8FOj1Dr37+/C3Teopsb7r33Xlu5cqUdcsgh1r17d5s9e7Y99NBD7lKrLuEqDGrRqN7YsWPtp59+st13392OOOIIF/y0lJWVuRD3xRdfuH/rd127dnVhT4vuir3zzjv/cnk2lRVAsEulLutGAAEEEEAAgYhAJoKdt3GNoOkZdLrjVaNt0YtG7PSz6PlxenyJRuoWL178lx5U+NPl3Oh5eNEv0iVd/XWLdD/DTvtAsOOAQwABBBBAAIG0CGQy2KWlgT7YCMHOB53ALiCAAAIIIBAGAYJd6nuZYJd6Y7aAAAIIIIAAAv9vzhnBLvVlQLBLvTFbQAABBBBAAAGCXVpqgGCXFmY2ggACCCCAAAKM2KW+Bgh2qTdmCwgggAACCCDAiF1aaoBglxZmNoIAAggggAACjNilvgYIdqk3ZgsIIIAAAgggwIhdWmqAYJcWZjaCAAIIIIAAAozYpb4GCHapN2YLCCCAAAIIIPD//26r/kQXS2oE6tWrZyNHjkzNymuw1uLiYsspKioq1991Y0EAAQQQQACBYAlMmTLFJk2a5P7+KkvtCijU9ezZ07p161a7K05ibQS7JPB4KwIIIIAAAggg4CcBgp2feoN9QQABBBBAAAEEkhAg2CWBx1sRQAABBBBAAAE/CRDs/NQb7AsCCCCAAAIIIJCEAMEuCTzeigACCCCAAAII+EmAYOen3mBfEEAAAQQQQACBJAQIdkng8VYEEEAAAQQQQMBPAgQ7P/UG+4IAAggggAACCCQhQLBLAo+3IoAAAggggAACfhIg2PmpN9gXBBBAAAEEEEAgCQGCXRJ4vBUBBBBAAAEEEPCTAMHOT73BviCAAAIIIIAAAkkIEOySwOOtCCCAAAIIIICAnwQIdn7qDfYFAQQQQAABBBBIQoBglwQeb0UAAQQQQAABBPwkQLDzU2+wLwgggAACCCCAQBICBLsk8HgrAggggAACCCDgJwGCnZ96g31BAAEEEEAAAQSSECDYJYHHWxFAAAEEEEAAAT8JEOz81BvsCwIIIIAAAgggkIQAwS4JPN6KAAIIIIAAAgj4SYBg56feYF8QQAABBBBAAIEkBAh2SeDxVgQQQAABBBBAwE8CBDs/9Qb7ggACCCCAAAIIJCHggt3ChQvLW7VqZbm5uUmsircigAACCCCAAAIIZEqgrKzMCgsLLeejjz4q79Kli+Xl5RHuMtUbbBcBBBBAAAEEEKihgEJdSUmJzZgxw3LGjRtX3rZtW9t6662tSZMmNVwlb0MAAQQQQAABBBDIhMCqVavsxx9/tIULF9r/BaCkrslj2TvmAAAAAElFTkSuQmCC;imageBorder=default;" vertex="1" parent="1">
          <mxGeometry y="322" width="630" height="256" as="geometry" />
        </mxCell>
        <mxCell id="TR_LXy8-aTHuwuq-qnMh-6" value="" style="shape=image;verticalLabelPosition=bottom;labelBackgroundColor=default;verticalAlign=top;aspect=fixed;imageAspect=0;image=data:image/png,iVBORw0KGgoAAAANSUhEUgAAAnYAAAEACAYAAAA+xzu4AAAAAXNSR0IArs4c6QAAIABJREFUeF7t3QeUFFX+9vHfzAAz5BxEFHVFMKzyIogBE2sOILqoa/gbUdaI4aiooIBxTWtAXMyuOSdUFF0DoqJgTiCKLghIDkNm5j3PZaup6eme7h6mu2uqvnWOx2G6uqru597qeubeW9UFY8eOLW/durV16NDBGjVqZOXl5caCAAIIIIAAAgggEHyBgoICW7Zsmc2YMcPmzp1rBZMnTy7v0qWLFRcXW2FhYfBLwBEigAACCCCAAAIIxATKysps1apV9sMPP1jBH3/8Ud6yZUtCHQ0EAQQQQAABBBCopQIKd/Pnz7eC0tLS8gYNGtTSYnDYCCCAAAIIIIAAAhJYvnw5wY6mgAACCCCAAAIIhEGAYBeGWqQMCCCAAAIIIIAAPXa0AQQQQAABBBBAIDwC9NiFpy4pCQIIIIAAAghEXIBgF/EGQPERQAABBBBAIDwCBLvw1CUlQQABBBBAAIGICxDsIt4AKD4CCCCAAAIIhEeAYBeeuqQkCCCAAAIIIBBxAYJdxBsAxUcAAQQQQACB8AgQ7MJTl5QEAQQQQAABBCIuQLCLeAOg+AgggAACCCAQHgGCXXjqkpIggAACCCCAQMQFCHYRbwAUHwEEEEAAAQTCI0CwC09dUhIEEEAAAQQQiLgAwS7iDYDiI4AAAggggEB4BAh24alLSoIAAggggAACERcg2EW8AVB8BBBAAAEEEAiPAMEuPHVJSRBAAAEEEEAg4gIEu4g3AIqPAAIIIIAAAuERINiFpy4pCQIIIIAAAghEXIBgF/EGQPERQAABBBBAIDwCBLvw1CUlQQABBBBAAIGICxDsIt4AKD4CCCCAAAIIhEeAYBeeuqQkCCCAAAIIIBBxAYJdxBsAxUcAAQQQQACB8AgQ7MJTl5QEAQQQQAABBCIuQLCLeAOg+AgggAACCCAQHgGCXXjqkpIggAACCCCAQMQFCHYRbwAUHwEEEEAAAQTCI0CwC09dUhIEEEAAAQQQiLgAwS7iDYDiI4AAAggggEB4BAh24alLSoIAAggggAACERcg2EW8AVB8BBBAAAEEEAiPAMEuPHVJSRBAAAEEEEAg4gIEu4g3AIqPAAIIIIAAAuERINiFpy4pCQIIIIAAAghEXIBgF/IGUF5ebgUFBSEvJcVDAAEEEEAAAQkEOtitW7fOpkyZYttuu22N19batWttzZo1bruFhYWx7ev3derUsXr16lUZiP7zn//YDTfcYJ06dbK77rqrxo8v3Q2uXLnSSkpKKq3++++/27fffmunn366PfXUU7brrrsm3eSyZcvsjz/+cK+3a9fOGjRokO7uWQ8BBBBAAAEEAiQQ6GC3++6720cffWTfffddLNy9//779ttvv1VJuN9++7mAcvTRR9szzzxjbdq0sT//+c+x94wcOdKuuOIKe+6555Ju54cffrDOnTu716dNm2bXXHNNhXUfeuih2L9PPvnkCq/tv//+dtxxx2W9mlevXm3Nmze3vffe244//nj3n5aHH37YdEw33nijXXrppbb99tvbl19+aUVFRQmP6YUXXrAjjzzSvfbWW2+Z/NJZFi1aZM2aNUtn1Vqxjur83Xffdcfau3dv22abbSoc9/fff2/XXnutDRo0yLp3714rysRBIoAAAghESyCQwW7x4sX2008/2X333Wf33HOPu5CecMIJ1rRpU7vkkktMQaSq5YMPPrBevXpZw4YNXZdk/KKwePPNN1cZ7HQR79Kli3vr9OnT7aqrrqqwmUceeST27//7v/9zP7/xxhuu5+uCCy6wW2+9NekhLlmyxAUoha3PPvvMZs2aZT179nTh8+CDD7atttoqrVboBTitfNtttzknLQsXLrQOHTpYo0aNbMCAAfbiiy/amDFjrGPHjgm3+/bbb8fC3Mcff+yOJdXy448/Wrdu3ezMM890Yad+/fqp3lLh9RUrVpj2Vbdu3bTfV1xcbD169Eh7/UxXHDdunCmUa3n11Vft0EMPdT8/+uijNnr0aNf2Dj/8cBf4vvjii4zLnOnxsD4CCCCAAAKZCgQy2I0dO9YOOuigSmX529/+5nrC/vvf/8Ze0wVXF9mzzz7b9Uxp0cVXwcYLdgph6n3r37+/6+3zBzsFvIEDB7r3qQesRYsW7mcFO73HC3fxB6MhYm/xenbif6ftKuT5lzfffNNOPPHE2NBnogq788473TFpSDjZMmfOHBcAveB68cUXx4ZQVQ4NE2uZPXu267H05tl99dVXpmDp771T6FM406Jevj333NP9rGHe+fPnu4DjD24arpa1V97ddtvNnn32WWvfvn3a7e/nn3+2P/3pT2mvrxVVDpU7W8vEiRNjodb740D7evDBB+3UU0+1s846y7Wpm266yR544AE75ZRTsnUobBcBBBBAAIFqCQQy2Omi//TTT1cqkAKUN2TovXjGGWfYvffea++8847tu+++Fd7jBTsNpSoEeUO7/mCnYKheLS0KROoV0uIFu2OOOSYhrIZ4vUWBUUv879T75r/4X3755Xb99de7db15bF4wUziaOXNmbJj5oosucr2KiRbNPdQ+U/Vc6r3qbfKGaPVvBeC77747o8ay+eabu/l66gH0lqlTp1q/fv3c77UodKnHyz/k7a2rMmpOotcDpt//+uuvtsUWW2R8HHpftpZJkybFhlgnTJhgqhMt8t5pp51cWfV7zV/s27dvlcE7W8fIdhFAAAEEEKhKIJDBTgeswDV58uQKx67eJA3HqodJNzwoOKUT7E477TQXOLyhykyHYv09Wt4BaRve4gUADa0KNNFQ7Ouvv26HHHKIe4sCkYaYNRyrIWYtc+fOdTdB6Bjvv/9+9zt/uPBDqHfulltuif3KC4veLwYPHhx7Tdtt1apV7N8XXnihG7bV4r9Jwj9kHR86k/WUachcoVE+3vbmzZtXaYhyxIgRrgdRgUj1p8Uf7DRUrHmCyZZhw4bZP//5TzcEqiHgbC3Jgp32p9d0Q02i4Jqt42G7CCCAAAIIZCoQ2GDn3fjgL5Dmr7Vu3doNKyp8lJaWphXs4lEyDXaffPKJvfTSSxU24w9T/iCllTSxXuHNG/705rwJ+4ADDrDXXnvNDYWec845phs5/MFJZVLvosqq4Kp1vUU9R9ddd50NHTrU/Uq9do8//niFniMNNXtz6dRbqCFD/+IFOx2HhryTLQpt3o0RmkOo+XyJFvVyathYw5X+4UtvXfVy7bDDDu6fCne6mSM+2Kmn7y9/+UvSY5Gv3hsf7DSkrOFq9bKm80gXPfpFvmo7iYa5/cFOB6Me08MOOyx2E02mJxfrI4AAAgggkGuBwAY79X6p98e/aO6X9xiS+GCnEKQ5cRouVA+RFm8oVgFHQ2n+HjsFs5dfftnNKVOvn5ZVq1a5u2m1+G+e2GuvvVxoyWRRD503T9A/Z9AbFta22rZt6wKchkf9j0z5xz/+EQtACnPqndRcN83z0jFrUS/hE0884YZ2zz///Nhdw/7ePAXY+MecpBvsdPex14vmH65OZKBj1B2l3hxHb50ZM2bYzjvvHJtP6O+B9PfYVTfYHXjggaY5i5ku/hsj/O+ND3bea127dnV1pLDesmXLTHfH+ggggAACCORMILDBLlGPnW4EUBhK1GPniXmBzx/sEs2xUy+QHm2hZ7xpX1oSzbFTD5iCwIIFCypUitdrpl8OHz68UoVpvp+Cjh5HohsTrrzySteT9+mnn7p1dUxbb721+9l/DPq3//Ej2v9mm23meo68Ic8+ffq4IKj/68YR7xi0ju5U1aLX4nsZ9fvzzjvPdHOGesgUqJIt/oComyT0vL5MFgVRzWn0brC4+uqrK9xZnM9g98orrzjP+CVZsPOvp95JtR3NO2RBAAEEEEAgaAKBDXbq3VGPj3/R3a66OzNRsNO8tF122cUNsXl3sno9dprLpmByxBFHuCCknizdFOE9D09DoVr0oF5vrpl67HTXpnoIq7to2FFDiMcee6wLb3q2nIYstWiOnMKTFm+I2duPnpHn3XShYVwNierYFMo0X07DsRrK1TZ1p3Ci5ZtvvqnUg6b1Ro0aZbr7U2VT2Ey0KEBvsskm7iX1DKouMll0562Gib1Qp5Cpm2G8G1O0rZoIdnoEjW7i0NzEqu4g9o5dd/PKUXMgvXmR/nL5g516aLVN3Xyi4XL/4n+uYiYurIsAAggggEC2BQIb7P7+97+757H5Fz1UWJPXN3aOneateTcyJANWsFMY9OaW6d969lo6S5MmTVxvnI5Vz11TgFKvnYb0Pv/8c7cd3RGqQOcPe962FeoU7tTjp4BW1aLwqx5H/80cWl8hJtkDiavant6n7Xl33Cbr3Uq0Dc1hU8D27jLWOroTVncLxz/nriaCXTp1kck6/mD34Ycfuh5HLXoQs0K0emm32247d4cvCwIIIIAAAkEUCGyw8+af+dHee+8903y36gQ7r1dO29Nwmjd8qocPew/J1VDslltu6Xbpn2Onf2v+nv85dVVVpnrRdFODtygUqNdOi+5IVY+PHtGiRSFhn332ia07fvz42HPkqnrkifcGhUQ9Fy/+WzQ051DP7/PfEZuqAerGAt3Q4X2rhm6a0M+pbkwoKytz5RgyZEiFgKnQqkerJHp4sT/YaQ5iVTdPXHbZZe5GhlzeFesPdp6b5mDqOXoMw6ZqSbyOAAIIIJAvgUAHO6FoWFCPutCk/+oGO/8NC9qmvjJL37ag4dgnn3wyZh8/x87/cGIv2OluUoXLRIuGSAUaH+ziHybsvVf7VwDUzRHatwKg9y0WWifZcKr3fg156oHN3rPk/MekIPv111+7O25TLbr5QcPVugnDC68KUfpWjMaNGyd8uwKlAqrep+Hd+K95040dXphNtIHqPMcu38EulSOvI4AAAgggkG+BwAc7hSIFO82LyjTY6c5UBRB9TZQXUHRXqR4uqyX+OXHpBLt0Kiw+2Ok9Gv71P6BXvT6681d3nypk6uvT/M+SS/YMO21LvYwa8vR/f632qd41Dc0qMKq3btttt63ycDXXTr1l2rc/mKkH8d///rf79o5Ei8Ko/6HH/nXUS6cbJZJ9fZm3bnW+eUJm2XxAsW5s0TxNLYke3ZJO3bMOAggggAAC+RQIdLDTHDT/omeyKYioZ0uLAozmgKkQehSK95VWGtbzz/PytqHeJfW4afHfFfr888+70KihSO/hwN7dqN57vR473dmarCfKuxkiUbDTdhRK9DBehR49qkNDlP7vJ9U6Ci+a1+cfnvWOQd9MoV61+GHX22+/3TQnMZPvXdU2/V+h5e1DcwH1nahV3YygrxrT42P8Q9Mqu0Jd/CNPkjVuPWjY6xHV+7xv70i0vheIs/2VYv5HvOgxKt73xubzBGXfCCCAAAIIZCIQ+GCnAKY7HxW01HPnPYuuqkKee+65dscdd1RaRc+s03wthQ9dxL3vhVXv2B577BFbX0N+Gmb033ywMXPsUlWIbq7QcKieG6dh4mShSjcn6Bl3KoMW3XWrQJXJPLr4Y1HQ1P5ldtRRR6W9Ld0Eoq9x0w0Guikk0Ty6qsqtcKibFbQo4FX1fDj17s2aNcsFV69HLZVpdV73P2ZG4Tn+6+uqs03egwACCCCAQC4FAhvs9NDgNWvWuMeDqGdJk9l1Q4ACUKpFQUc3XyRaNPerd+/eFV7XfvQVXwonekCxAlb83DI9+00BQ3PgvBss4revoKN5aQo63rPxUh1rdV5/44033B27emQJCwIIIIAAAggg4AkENthRRQgggAACCCCAAAKZCRDsMvNibQQQQAABBBBAILACBLvAVg0HhgACCCCAAAIIZCZAsMvMi7URQAABBBBAAIHAChDsAls1HBgCCCCAAAIIIJCZAMEuMy/WRgABBBBAAAEEAitAsAts1XBgCCCAAAIIIIBAZgIEu8y8WBsBBBBAAAEEEAisAMEusFXDgSGAAAIIIIAAApkJEOwy82JtBBBAAAEEEEAgsAIEu8BWDQeGAAIIIIAAAghkJkCwy8yLtRFAAAEEEEAAgcAKEOwCWzUcGAIIIIAAAgggkJkAwS4zL9ZGAAEEEEAAAQQCK0CwC2zVcGAIIIAAAggggEBmAgS7zLxYGwEEEEAAAQQQCKwAwS6wVcOBIYAAAggggAACmQkQ7DLzYm0EEEAAAQQQQCCwAgS7wFYNB4YAAggggAACCGQmQLDLzIu1EUAAAQQQQACBwAoQ7AJbNRwYAggggAACCCCQmQDBLjMv1kYAAQQQQAABBAIrQLALbNVwYAgggAACCCCAQGYCBLvMvFgbAQQQQAABBBAIrADBLrBVw4EhgAACCCCAAAKZCRDsMvNibQQQQAABBBBAILACBLvAVg0HhgACCCCAAAIIZCZAsMvMi7URQAABBBBAAIHAChDsAls1HBgCCCCAAAIIIJCZAMEuMy/WRgABBBBAAAEEAitAsAts1XBgCCCAAAIIIIBAZgIEu8y8WBsBBBBAAAEEEAisQCCDXWlpaWDBODAEakqgYcOGRluvKU22E1QB2nlQa4bjqkkBtfOgLAS7oNQExxE5AS54kavySBaYdh7Jao9coQl2KaqcXozInRORLDAXvEhWe+QKTTuPXJVHssAEO4JdJBs+ha4owAWPFhEFAdp5FGqZMhLsCHacBQgYFzwaQRQEaOdRqGXKSLAj2HEWIECwow1EQoBgF4lqjnwhCXYEu8ifBAAYwY5GEAkBgl0kqjnyhSTYEewifxIAQLCjDURDgGAXjXqOeikJdgS7qJ8DlN8IdjSCaAgQ7KJRz1EvJcGOYBf1c4DyE+xoAxERINhFpKIjXkyCHcEu4qcAxZcAFzzaQRQEaOdRqGXKSLAj2HEWIECwow1EQoBgF4lqjnwhCXYEu8ifBADQY0cbiIYAwS4a9Rz1UhLsCHa15hxYtWqVrV692ho3bmzTpk2zhQsXWvfu3WvN8Qf5QLngBbl2NhxbWVmZLViwwFq1auXa/6effmoHHHBA7Tj4ABwl7TwAlZDgEPyf7bTrja8jgh3BbuNbkW8L3377rb3yyiv2yy+/2LbbbmvHHHOMbbLJJrE1nnzySVu0aJENHDgw6X7vuusumz9/foXXzz77bHvxxRft888/t5EjR9rzzz9vX3/9tV111VU1evxR3RgXvMo1P3fuXHvqqafs+++/d234sMMOs65du9rSpUvt1ltvrfAG+V188cUVXissLLR27drZbrvtZjvssEOszcbvabvttrP+/ftX+PVrr73mQpt/Ofzww23dunVuP2PGjLFZs2bZ6aefbu+9915Um23G5aadV03mte1LL73USkpK3Mr6zFZbPvroozP2jn9DsnY9efLk2Gf71KlTadcbKU2wI9htZBPa8Pbx48fbFVdcYWeeeaZtv/32Lnj9/vvvdskll7iVVqxYYX/961/dzw899JC1bt064b6PPfZYdxHt3Llz7HVdGFeuXGmlpaXWoUMHgl2N1dr6DXHBqwg6c+ZMO+OMM2yfffaxfffd1/WSPffcc3bHHXfYkiVLXDseMWKE1a9f372xqKjIunXrZgqDeu2GG26wgoIC++mnn+zee++12267zfU0648avX/48OE2dOhQa9KkiTVr1sw6depU4QC0H/VcHHLIIbHfd+zY0a07ffp022abbYwLYOYnAe28ajOv/eoPh0aNGrk/IB544AHXhlu0aJE5eNw7krXrunXrxj7badcbzew+z4OyLF++3ApKS0vLGzRoEJRjco2NJbWAutKPO+44O+mkk6xPnz6xN5SXl7sLnBYFvzfffNOaNm1qW2+9tfXt2zdpsFOvRPwwq074efPmuR6Q+B479WS8/fbbsZ7CXr16ub8yWdIT4IJX0UmhTcuVV14Za7/eGvEXP/87E702bNgw13OnP3i0KLAdccQR9sILLyS9WOoCqCB4yimnVDgwBcwPPvjAnTuJLoDq+Zg0aZK1b9/e9t57b3dxZtkgQDtPP9hpust5551n999/v/u89pb4NqZQpgCoKQFee5syZYobddFntX9J1q79n+20640/Ywl2KQwJduk1Mn0InHrqqe4ET3Yx0cVyl112cResJ554wu68886Mgp0/zMUHO108ly1b5npY9Nr+++9v6vljSU+AC94GJ81jUy/dLbfcknAOpxfeHnvssdhfxmrzusDFBzv9wXHyySdbv3797Mgjj9zoYOe/6MVfAF999VV79NFH7cQTT7SJEyea/lK+8cYb+QPHdwrQztMLduqhu+CCC1yvtf8P8GRt7NxzzzVNFTjooIPcDtQb3bNnTzv00EPTCnb+z3PadXqf2VWtRbAj2G18KzKzjz76yK655hoX7BItCsgaVtJwloav9LPmL6knI35RINNcDwVALerd0O+SBTv9dagPIb1eXFxs+vfgwYPdvljSE+CCt8HJ61F7/PHHbdNNN60E6IU3/x8w1113ne20006xYKepBOo50zy4Ll262PXXXx/rnUu3x07t15ufuuWWW7ptJAt2a9assf3228/uu+8+N6zr/fvpp5+2tm3bptcIIrAW7Ty9YKe2rTl2W2yxhd18882u17qqNqZpNy+99JL7Y11/YCvQ6fO4ZcuWlYJdonadLNjRrqt3UhLsCHbVazlx79JNE2eddZaNGzfO9VzEL++++6670cHrRdOEXA1Nafg2UbBT758ulFo0NK+QlyzYvfXWWy5Uah6eFs3F09wm/b5evXo1Ur6wb4QL3oYa9i4muknHa1P++k9nKFY9FvojR+Euvhc73WCnfermIy2aw6c7YZMFO80J1LmkEFmnTh33nm+++cZdaHfcccewN9+0y0c7Ty/Y9e7d2wYNGuTa1OWXX2577LGHVdXG9MeEeuv0x9DPP/9s6tlTb3H8oqHYRO06WbCjXafdtCusSLAj2FWv5cS9a/HixW5unU5cL5D5V1Go0wmvrn0t6klQr5xuokgU7BLNsUsW7DTn49prr7WHH364wqaYX5R+1XLBq2ilPzr22msvO/744yshphPsFObUM632roukfzvpBrtEc+ySBTuvR1zngAKgt+gYFApZ1gvQztMLdnoCQfPmzU13sWqOnQLb2rVr3UhLsjY2atQo9x59zvfo0cNNh0kU7BK162TBjnZdvTOXYEewq17LSfAuzct444033JDRVltt5XoX1O2u+RcKfZqTpDtatWgSuOYdJRruUq9eqmCniedffPGFeXPr1LOhvzA1HKUPIE3cTTTMW2OFDdmGuOBVrNCPP/7Y9MgHzQvVXCHdzTp69GgX1HRTju58Vdv2//Ggoav40PfVV1+59u+fdlDTwU694Roqu+iii2yzzTazc845x4W5GTNmuH+zbBCgnacX7LxeZs0RPe2001xvnD6Xq2pjCnTq3dMf7BqR8abS+PeY7OaJRMGOdl39M5dgR7CrfuuJe6eGsB555BH3nxZd9C688EJ3kVHPXHzv3Pnnn2977rln7BEo3uaSBTuFOQ0vDRkyxIU6vd8batK8Ol2EFRi1aAI5N0+kX7Vc8CpbvfPOO+4GCs0Z0nLCCSe4u1QVzLzH9vjfNXbsWHdR02v+4Vf98aFzQHfYaqmpYKd9aS6fpkDoDxv1musxKp999pk79zQEq55s7g4n2KX7SZCoN/rLL790d8fqDxlNs6mqjel5o+oxVptPtCQLdv7Pdtp1urWVfD2CHcFu41tR3Bb0V56e1aVnbnmPOqnxnZi5C5mGmvzz6NSzokadaJ5fNo4hLNsk2CWvSQUxPW8uiEOaejakzjd/z6F3J3+QPtyDcp7QzmumJhK1Md1NPmDAAPd0BM3J25iFdr0xeuunHARl4Tl2QakJjiNyAlzwIlflkSww7Tw71a4REz2jVL3FmpMXxD+CslPyYG6VYEePXTBbJkeVUwEueDnlZmd5EqCdZwde86vVc6xpCP6bd7KzN7aaSoBgR7BL1UZ4PQICXPAiUMkUkbtiaQORECDYEewi0dApZNUCBDtaSBQEaOdRqGXKSLAj2HEWIEBPBm0gEgIEu0hUc+QLSbAj2EX+JACAB7fSBqIhQLCLRj1HvZQEO4Jd1M8Bys8T+WkDEREg2EWkoiNeTIIdwS7ipwDFlwAXPNpBFARo51GoZcpIsCPYcRYgQLCjDURCgGAXiWqOfCEJdgS7yJ8EANBjRxuIhgDBLhr1HPVSEuwIdlE/Byg/Q7G0gYgIEOwiUtERLybBjmAX8VOA4jPHjjYQFQGCXVRqOtrlJNhFu/4pPQIIIIAAAgggkBWB5cuXW0FpaWl5gwYNsrIDNooAAggggAACCCCQGwGCXW6c2QsCCCCAAAIIIJB1AYJd1onZAQIIIIAAAgggkBsBgl1unNkLAggggAACCCCQdQGCXdaJ2QECCCCAAAIIIJAbAYJdbpzZCwIIIIAAAgggkHUBgl3Wic0eeLPUrn5mqZWuLs/B3sK9i4b1Cuzq/o3t1AMahrugESxdbT9PaJsRbLTVKDLtvBpovCUjAYJdRlzVW3nzAbMJddWjS/guXUB/u7ddDW6RTQVBIAznCW0zCC0p2MdAOw92/YTh6Ah2OajFlifNysFeorWL+Q9vEq0CR6C0YTlPaJsRaKwbUUTa+Ubg8da0BAh2aTFt3EphOZE3TqFm383Fs2Y9g7C1sJwntM0gtKbgHgPtPLh1E5YjI9jloCbDciLngCrtXXDxTJuq1qwYlvOEtllrmlxeDpR2nhf2SO2UYJeD6q6JE7mowGwd917EaouLZw4abo53URPnSY4POeHuaJtBqIXgHgPtPLh1E5YjI9jloCYzPZH//pf69vKkVTZzUZlt06bIBh7Y0Pr0LLGL7l9sL32+qtIRX9anodUrKrDhLyzLQWlqZhcldQusuMhs8coNaTXR75LtjYtnzdRDkLaS6XmSrWNvWlJgq9aZrVyzoW1u0rjQZi0tS2uXtM20mCK7UlDaOZ/B4W2CBLsc1G0mJ3KvrevaS0Na2YX3LbKHP1hhxUUFNm1UWxs+xIZdAAAUJklEQVT3+Urr1L6O7TFkXqUjfntoSyuuW2C9ErymlTdtVmgPn9fczrpnkU35Y13KEu+yRR2rV6cg6Xpzl5TZj2lsp6odvXllS2vXvMh2vOgPU2/k6DObudW33ayu7X7F3JTHyMUzJVGtWyGd8yQXbfO//2pnb0xaaQNGL7Id2hfZiXs3sIN71LfXP11hlz6xNKUrbTMlUaRXSKedd25TZK2bFCZ1Wr223CZOX7tRjnwGbxRfoN9MsMtB9aRzInuHMePedla/XoHNX7IhgLVoXGR3vLQ01iPXc8u6dt2JTWzt/1bpvk099/bPpqx2/y8pLrCXPlpht75e6v7duW2RvXZVK2tUUmBn3b3InvtsZZWlnn1/O6ujtJVgKSgwm/r7Wtt1cOrwVdVOXrqkhQt2Pf+3nU9vbG3fTl9jf+laYkdeN88+/bXqDy0unjlouDneRTrnSS7a5rS727rz58J/LzH13v0wsq3d+fIyO+vQRtbhjNkpVWibKYkivUI67XzCNa2s82Z1rTzJ9Ju1ZeXW7tTUbZHP4Gg2NYJdDuo9nRNZh/HCxc1trz+X2MhXltkfi9entp22rGdH7lHfDho6NxZ2jupeYv86p7m9/cX6gKYgqPN/5f8egLzvjiX24Xcrrd/NC2OlU8/fW1e1tO071rVBoxfZvz9cEXttaL9Gtnh5md0+drn7nS6ewx5fbKPe3rCOt/KLFze3ti3q2G6Xb3ywa9u8KBYQu3aoY+cc2sgG3rvI1qYx4sXFMwcNN8e7SOc8yUXbVLB7ccIKu+jRJU7g3AMa2Loys9HvLKdt5rhNhHF36bRzBbt5S8qszz8WVCI4c9/6NuzEpjUS7PgMDmMLMyPY5aBe0zmRnzy/me33/+rbBfcusnFfr7JZS9anm3FDWlrHNkXW6dw/Ykfab+cS+9fZza3NqZWfj6cAN/P+dnb900vsltfW99j5lztOamrXPb/UZv9vvtAWLQpt4s1t7ZWJK+y0exZlHOw0NNa0QaG78CVa1O+3rqzc3p2ypsLL6rHrtX2x/fT7Wnv83VIb+VZ6F01vIwS7HDTcHO8infMkk2BX3bapYNesYaF9+uNqG/X6soTzWquioW3muOHUst2l084zCXZbtiy0zu3r2mrfnNB4Eo3WjPlyVYUb8PgMrmUNJ4PDJdhlgFXdVVOdyONHtLJtNq1rZ45caCfsXd/23KHERr661F6btNLeGN7arnh4kd3zzobes/49Smzk3xMHu4G969u1JzWzLmfNsbmlVXd9aZhp8q1trLDQrNNZc2K9EZlcPD+7sbVt2a5OlTQrVpdbhwEVhw30odKzcz379Y919qdN6rjwN/6bVTb40SVpzQPk4lnd1hjc96U6T3TkuWibCnZl68qtrNysVdMiW76y3J77cLld+dRSW7Yq9a3ptM3gtrEgHFk67TyTYHf7SU3shN6pv2Jx5wvm2PQFG64JfAYHoTVk5xgIdtlxrbDVVCdyj451bNVas69mrp9XdssJTezk/defqJprt42vt06/0x16B3crtgfeqzxUOuXONrZgWXnKOXCanDtmaEtrVL/Q9ho8t0KYyuTi2bLB+gm+mvORaCksKLCSOlbpjkL/HLt2jQtt2DGNre/u9e3dL1fasbev7zmkVySVQrheT3WeZBrsqts2/XPsum1ex4Yf18R27VLsetP9UxiS6RPswtUua7o06bTzTIJdg7oF1qSkwFZU0WPXoF6B/bG0rFKPnTfPmc/gmq7l/G6PYJcD/3ROZP9haDh16t1trGFJoZs8e9bdC+3piVXf8KD3Kyztvl2x7X/lXPtiRvKbDy7v28gG9W1spavLrN818yutm0mwqy6fjrV9yyLrcemGuXoqtz6AFq5IPcmOi2d15YP7vnTOk1y0TQW7Vz5eYYMeWT/HTosufN70hVSCtM1UQtF+PZ12nkmwq64mn8HVlQv++wh2OaijdE5k7zD22aauPXhhC6tbWGCHDZ9no/7e3J6bsNxuHlN5vpz/PXcMbG7tWxTZJQ8uStiTp8eonNS7oR3cvcTqFxfY+G9X2TG3LazwrC5ve7owrVtnNmNe5UejdGxbZD/PXlshkFWHMNGHSibb4eKZiVbtWDed8yQXbTNRsMtEkLaZiVb01k2nnX9+UxvbvE2R/Tqn8mdwh1ZFVlRkls52qtLlMzi8bY9gl4O6TecEPKJbsV16VBPrtGkd+/a3NXbcrQvcA4qrWjZvXmjvjGhlzRsX2ZyF6+yEWxfY5N8q99Q9fl4zO3Dn+rZmXblN/GG1DX18SZU9erowzZy/zj7+Yf3jU/xLv93r269z1lp3X09bdQjHDG5hmzSvY90u2XBTSCbb4eKZiVbtWDed8yQXbfOXe9raaxNX2tkPLK4WHG2zWmyReVM67XzyP9rYZm2K7IUJlafb7Nq5nm3aqmijgx2fweFtcgS7HNRtOieyvj3ir3s0sEH3LrLxP1W8g7SqQ9S3VEyatqbKh1XqJokum9SxT35Jb7u6U3bW4nJbleA7zDRvqbDAUt6YkYr1woMbWpumhXbZk6kf+JpoW1w8UwnXvtfTOU9y0Tb/dXpT+/CH1fbI+MoX1XRUaZvpKEV3nXTaueZRr1xrCaelaE5dq0YF9tvC1FNWqlLmMzi8bZBgl4O6TedEzsFhhGoXXDxDVZ2uMGE5T2ib4WubNVki2nlNarKtRAIEuxy0i7CcyDmgSnsXXDzTpqo1K4blPKFt1poml5cDpZ3nhT1SOyXY5aC6w3Ii54Aq7V1w8UybqtasGJbzhLZZa5pcXg6Udp4X9kjtlGCXg+refMBsK/3f133lYHeh30XDegX2273tQl/OqBUwDOcJbTNqrTbz8tLOMzfjHZkJEOwy86rW2g+8WWpXP7OUcFctvYpv0oXz6v6N7dQDUj9pvQZ2xyZyKFDbzxPaZg4bSy3eFe28FldeLTl0gl0tqSgOEwEEEEAAAQQQSCVAsEslxOsIIIAAAggggEAtESDY1ZKK4jARQAABBBBAAIFUAgS7VEK8jgACCCCAAAII1BIBgl0tqSgOEwEEEEAAAQQQSCVAsEslxOsIIIAAAggggEAtESDY1ZKK4jARQAABBBBAAIFUAoEMdr///nuq4+Z1BBBAAAEEEEAgEALt27cPxHHoIAIZ7AKjw4EggAACCCCAAAK1SIBgV4sqi0NFAAEEEEAAAQSqEiDY0T4QQAABBBBAAIGQCBDsQlKRFAMBBBBAAAEEECDY0QYQQAABBBBAAIGQCBDsQlKRFAMBBBBAAAEEECDY0QYQQAABBBBAAIGQCBDsQlKRFAMBBBBAAAEEECDY0QYQQAABBBBAAIGQCBDsQlKRFAMBBBBAAAEEECDY0QYQQAABBBBAAIGQCBDsQlKRFAMBBBBAAAEEECDY0QYQQAABBBBAAIGQCBDsQlKRFAMBBBBAAAEEECDY0QYQQAABBBBAAIGQCBDsQlKRFAMBBBBAAAEEECDY0QYQQAABBBBAAIGQCBDsQlKRFAMBBBBAAAEEECDY0QYQQAABBBBAAIGQCBDsQlKRFAMBBBBAAAEEECDY0QYQQAABBBBAAIGQCBDsQlKRFAMBBBBAAAEEECDY0QYQQAABBBBAAIGQCBDsQlKRFAMBBBBAAAEEECDY0QYQQAABBBBAAIGQCBDsQlKRFAMBBBBAAAEEECDY0QYQQAABBBBAAIGQCBDsQlKRFAMBBBBAAAEEECDY0QYQQAABBBBAAIGQCBDsQlKRFAMBBBBAAAEEECDY0QYQQAABBBAIgcD48eNt7NixtmbNmhCUpnYUoW7dunbggQdar169AnPABLvAVAUHggACCCCAQPUFhgwZQqirPl+136lwN2LEiGq/v6bfSLCraVG2hwACCCCAQB4ELrvssjzslV1K4IYbbggMBMEuMFXBgSCAAAIIIFB9AYJd9e029p0Eu40V5P0IIIAAAgggUEGAYJe/BkGwy589e0YAAQQQQCCUAgS7/FUrwS5/9uwZAQQQQACBUAoQ7PJXrQS7/NmzZwQQQAABBEIpQLDLX7US7PJnz54RQAABBBAIpQDBLn/VSrDLnz17RgABBBBAIJQCBLv8VSvBLn/27BkBBBBAAIFQChDs8letBLv82bNnBBBAAAEEQilAsMtftRLs8mfPnhFAAAEEEAilAMEuf9VKsMufPXtGAAEEEEAglAK5DnYHHHCA9e7d28rLy2OeCxYssLffftv69+8f+11BQYH7Of74zj33XPvyyy/t/fffr1AfjRs3tmXLllXYrrdCvXr1rEGDBlZYWGjezyUlJda8eXP78ccfbd68eXmpW4JdXtjZKQIIIIAAAuEVyHWwO/zww22XXXax4cOHO9SjjjrKttpqKxs3bpwdccQRdtVVV7nf9+jRw7Tu4MGDK+Bff/31NmnSJHv22Wfd73fccUdbu3atC4VTpkyxJ554olJlHXroobbnnnsmrMRff/3VRo0alZcKJtjlhZ2dIoAAAgggEF6BfAS7PfbYI9azpp650tJSGzt2rB155JEVfp+ox07Bbvz48TZmzBhXKX379nUhUEHvmGOOsdtvv91mz55docIaNWpk+m/p0qWmL7vfddddrU+fPqZQN3r0aCsrK8tLBRPs8sLOThFAAAEEEAivQD6CXc+ePe3GG2+MBbPNN9881mN3zTXXuN/vvPPOpp62+ONTsNOwrXr4vGXYsGE2efJkFxA/+eQTF+CSLQqPCoIfffSRvfzyy3mtWIJdXvnZOQIIIIAAAuETyEewU4/dunXrYpia46awduyxx8Z+p/lwiXrsFIZef/11e++992LrtmjRwhYuXJhwfp23UlFRkQ0cONA222wzmzZtmn3//ff23Xffmeb35Wsh2OVLnv0igAACCCAQUoF8BDv1mA0dOrSCqObXderUyW666Sb3e83D69evX6U5dgpD6mmbMGFC2jWiYdhBgwa54VgNu65YscLq1q3rbqRQ796dd95pS5YsSXt7NbUiwa6mJNkOAggggAACCCTsEcs2i26IULB77LHH7Oijj47trmHDhu5nDacuWrTIDanGBzv1ul177bX2/PPP28SJE9M61I4dO9qAAQNMc/nU06f5ed6y6aab2plnnmmrV682bwg4rY3W0EoEuxqCZDMIIIAAAgggsF4gXz126pnbaaed3DGop65z587u51dffdWFO/WoxQe7+vXru7tmn3rqKfv8888rVaGGb1u3bm1z5sxxr9WpU8c0/27lypV22223xfY1depU92gULRoWVthUsPN+l6u2QbDLlTT7QQABBBBAICIC+Qp23lDsXnvtZQcffLC7W3XNmjXmhZ1EQ7F6Fp3el6zH7owzzjDdiDFkyJDYfDsFxunTp9t2223negg1FKueP82ve+SRR2y//fZz/1199dUuAOZyIdjlUpt9IYAAAgggEAGBfAW7kSNHupsl2rVr5x510qpVK9t6662rDHaqDg3F/vTTT/bggw/GakcPJz755JNNQ6vqyVOPXvxyzjnnWLNmzVzP3G677eYek6JHpuy///5uzp3uts31QrDLtTj7QwABBBBAIOQC+Qp2ugt29913d3PtFO4UtjTUevfdd7tviejWrZt7qHD8A4p1Z+sWW2zh7oJdvHixNWnSxH2DhBZ9G4Xm0SVa1DN4yCGHxJ5l17ZtW7eahn3vuecemzt3bs5rmmCXc3J2iAACCCCAQLgF8hXs/HfFnnLKKaagpRsm9P+uXbs6dN1EkSj86Fl06t1TENS8uJkzZ7q5eanmyHXp0sW6d+9uTZs2dfPwfvnlF9fDxwOKzQ2FF5SWlpYrVbMggAACCCCAQO0UyHWwKy4uNt0Bm+z5cbppQq9rvluu57zlugbpscu1OPtDAAEEEEAg5AK5DnYh58yoeAS7jLhYGQEEEEAAAQRSCRDsUgll73WCXfZs2TICCCCAAAKRFCDY5a/aCXb5s2fPCCCAAAIIhFKAYJe/aiXY5c+ePSOAAAIIIBBKAYJd/qqVYJc/e/aMAAIIIIBAKAUIdvmrVoJd/uzZMwIIIIAAAqEUINjlr1oJdvmzZ88IIIAAAgiEUoBgl79qJdjlz549I4AAAgggEEqBIUOG2Jo1a0JZtiAXSg9iHjFiRGAOkW+eCExVcCAIIIAAAghUX2D8+PE2duxYwl31CTN+p0LdgQceaL169cr4vdl6A8EuW7JsFwEEEEAAAQQQyLEAwS7H4OwOAQQQQAABBBDIlgDBLluybBcBBBBAAAEEEMixAMEux+DsDgEEEEAAAQQQyJYAwS5bsmwXAQQQQAABBBDIsQDBLsfg7A4BBBBAAAEEEMiWAMEuW7JsFwEEEEAAAQQQyLEAwS7H4OwOAQQQQAABBBDIlgDBLluybBcBBBBAAAEEEMixAMEux+DsDgEEEEAAAQQQyJYAwS5bsmwXAQQQQAABBBDIsQDBLsfg7A4BBBBAAAEEEMiWAMEuW7JsFwEEEEAAAQQQyLEAwS7H4OwOAQQQQAABBBDIlgDBLluybBcBBBBAAAEEEMixAMEux+DsDgEEEEAAAQQQyJYAwS5bsmwXAQQQQAABBBDIsQDBLsfg7A4BBBBAAAEEEMiWAMEuW7JsFwEEEEAAAQQQyLEAwS7H4OwOAQQQQAABBBDIlgDBLluybBcBBBBAAAEEEMixAMEux+DsDgEEEEAAAQQQyJYAwS5bsmwXAQQQQAABBBDIsQDBLsfg7A4BBBBAAAEEEMiWgAt2s2fPLm/durUVFhZmaz9sFwEEEEAAAQQQQCCLAmVlZTZ37lwrmDBhQnnXrl2tuLiYcJdFcDaNAAIIIIAAAghkQ0ChbtWqVfbFF19YwTPPPFPerl0769SpkzVu3Dgb+2ObCCCAAAIIIIAAAlkSWLp0qU2dOtVmz55t/x/6u9mr39Cz3gAAAABJRU5ErkJggg==;imageBorder=default;" vertex="1" parent="1">
          <mxGeometry y="644" width="630" height="256" as="geometry" />
        </mxCell>
        <mxCell id="TR_LXy8-aTHuwuq-qnMh-7" value="❹" style="text;whiteSpace=wrap;html=1;fontFamily=Noto Sans KR;fontSize=24;fillColor=none;labelBackgroundColor=none;fontColor=default;" vertex="1" parent="1">
          <mxGeometry x="270" y="130" width="30" height="40" as="geometry" />
        </mxCell>
        <mxCell id="TR_LXy8-aTHuwuq-qnMh-8" value="❺" style="text;whiteSpace=wrap;html=1;fontFamily=Noto Sans KR;fontSize=24;fillColor=none;labelBackgroundColor=none;fontColor=default;" vertex="1" parent="1">
          <mxGeometry x="90" y="130" width="30" height="40" as="geometry" />
        </mxCell>
        <mxCell id="TR_LXy8-aTHuwuq-qnMh-9" value="❹" style="text;whiteSpace=wrap;html=1;fontFamily=Noto Sans KR;fontSize=24;fillColor=none;labelBackgroundColor=none;fontColor=default;" vertex="1" parent="1">
          <mxGeometry x="270" y="460" width="30" height="40" as="geometry" />
        </mxCell>
        <mxCell id="TR_LXy8-aTHuwuq-qnMh-10" value="❺" style="text;whiteSpace=wrap;html=1;fontFamily=Noto Sans KR;fontSize=24;fillColor=none;labelBackgroundColor=none;fontColor=default;" vertex="1" parent="1">
          <mxGeometry x="80" y="460" width="30" height="40" as="geometry" />
        </mxCell>
        <mxCell id="TR_LXy8-aTHuwuq-qnMh-11" value="❹" style="text;whiteSpace=wrap;html=1;fontFamily=Noto Sans KR;fontSize=24;fillColor=none;labelBackgroundColor=none;fontColor=default;" vertex="1" parent="1">
          <mxGeometry x="270" y="780" width="30" height="40" as="geometry" />
        </mxCell>
        <mxCell id="TR_LXy8-aTHuwuq-qnMh-12" value="❺" style="text;whiteSpace=wrap;html=1;fontFamily=Noto Sans KR;fontSize=24;fillColor=none;labelBackgroundColor=none;fontColor=default;" vertex="1" parent="1">
          <mxGeometry x="70" y="780" width="30" height="40" as="geometry" />
        </mxCell>
      </root>
    </mxGraphModel>
  </diagram>
</mxfile>
